<svg width="120" height="120" viewBox="0 0 120 120" fill="none" xmlns="http://www.w3.org/2000/svg">
<g opacity="0.05" clip-path="url(#clip0_113_401)">
<path d="M26.7424 31.396C27.0443 32.0426 27.5244 32.5896 28.1264 32.9728C28.7284 33.3561 29.4272 33.5596 30.1408 33.5595H48.3752V40.0003C48.3752 40.9949 48.7703 41.9487 49.4736 42.652C50.1768 43.3553 51.1307 43.7503 52.1252 43.7503C53.1198 43.7503 54.0736 43.3553 54.7769 42.652C55.4801 41.9487 55.8752 40.9949 55.8752 40.0003V33.5595H57.6026C58.5971 33.5595 59.551 33.1644 60.2542 32.4611C60.9575 31.7579 61.3526 30.804 61.3526 29.8095C61.3526 28.8149 60.9575 27.8611 60.2542 27.1578C59.551 26.4546 58.5971 26.0595 57.6026 26.0595H55.8752V3.55597C55.875 2.78625 55.638 2.03523 55.1963 1.40487C54.7545 0.774506 54.1295 0.295343 53.4061 0.0324269C52.6827 -0.230489 51.8959 -0.26442 51.1525 -0.0647606C50.4091 0.134899 49.7452 0.558477 49.2508 1.14847L27.2651 27.402C26.807 27.949 26.5145 28.6154 26.422 29.3228C26.3294 30.0303 26.4405 30.7495 26.7424 31.396ZM48.3752 13.875V26.06H38.1717L48.3752 13.875ZM67.3526 93.5314L86.9983 62.8594H72.5332C71.5386 62.8594 70.5848 62.4643 69.8815 61.7611C69.1783 61.0578 68.7832 60.104 68.7832 59.1094C68.7832 58.1148 69.1783 57.161 69.8815 56.4578C70.5848 55.7545 71.5386 55.3594 72.5332 55.3594H93.8536C94.5265 55.3594 95.187 55.5405 95.7659 55.8836C96.3447 56.2268 96.8206 56.7194 97.1435 57.3098C97.4665 57.9001 97.6246 58.5665 97.6013 59.239C97.5781 59.9115 97.3743 60.5654 97.0113 61.1321L73.6676 97.5774C73.4025 97.9933 73.058 98.3528 72.6538 98.6354C72.2496 98.918 71.7936 99.1181 71.312 99.2242C70.8304 99.3303 70.3325 99.3404 69.847 99.2538C69.3615 99.1673 68.8978 98.9858 68.4825 98.7198C68.0672 98.4538 67.7085 98.1084 67.4268 97.7036C67.1451 97.2987 66.9461 96.8423 66.8411 96.3604C66.7361 95.8785 66.7272 95.3807 66.8149 94.8953C66.9026 94.41 67.0851 93.9467 67.3521 93.5321L67.3526 93.5314ZM86.9838 24.6235C87.687 25.3267 88.0821 26.2805 88.0821 27.2751C88.0821 28.2696 87.687 29.2234 86.9838 29.9267L31.7046 85.2061C30.9999 85.9023 30.0483 86.2914 29.0577 86.2884C28.0671 86.2854 27.1179 85.8905 26.4174 85.1901C25.717 84.4896 25.3221 83.5404 25.3191 82.5498C25.3161 81.5592 25.7052 80.6076 26.4014 79.9029L81.6799 24.6235C82.0281 24.2752 82.4416 23.9989 82.8966 23.8104C83.3516 23.6218 83.8393 23.5248 84.3319 23.5248C84.8244 23.5248 85.3121 23.6218 85.7671 23.8104C86.2222 23.9989 86.6356 24.2752 86.9838 24.6235ZM21.2112 16.7668C22.1604 13.291 21.5587 10.673 19.4231 8.98199C17.0325 7.09058 13.0521 6.75542 10.3612 8.2212C8.31702 9.33448 7.41116 11.258 7.66897 13.94C7.71605 14.4302 7.66611 14.9249 7.522 15.3958C7.37789 15.8667 7.14244 16.3047 6.82908 16.6846C6.51573 17.0645 6.13061 17.379 5.69571 17.6101C5.26082 17.8412 4.78467 17.9844 4.29444 18.0314C3.80422 18.0785 3.30952 18.0286 2.83859 17.8845C2.36767 17.7404 1.92974 17.5049 1.54981 17.1915C1.16988 16.8782 0.855392 16.4931 0.624298 16.0582C0.393205 15.6233 0.250033 15.1471 0.202957 14.6569C-0.345715 8.95316 2.04936 4.2073 6.77366 1.63456C12.0764 -1.25294 19.353 -0.636531 24.0762 3.10034C28.5921 6.67339 30.1844 12.3748 28.4454 18.7425C27.2716 23.0405 23.254 26.1755 18.6016 29.8062C16.0901 31.766 13.3812 33.8799 11.1098 36.2515H26.644C27.6385 36.2515 28.5924 36.6466 29.2956 37.3499C29.9989 38.0531 30.394 39.007 30.394 40.0015C30.394 40.9961 29.9989 41.9499 29.2956 42.6532C28.5924 43.3564 27.6385 43.7515 26.644 43.7515H3.82874C3.19319 43.7517 2.56802 43.5904 2.01193 43.2827C1.45584 42.975 0.987077 42.531 0.649659 41.9924C0.312242 41.4538 0.117242 40.8384 0.0829712 40.2037C0.0487002 39.5691 0.176283 38.9362 0.453738 38.3644C3.50647 32.0728 9.07429 27.728 13.9866 23.8946C17.2844 21.3209 20.6932 18.6607 21.2112 16.7668ZM120 60.1941C120 72.061 116.481 83.6615 109.889 93.5285C103.296 103.395 93.9249 111.086 82.9613 115.627C71.9977 120.168 59.9336 121.357 48.2947 119.042C36.6558 116.726 25.9648 111.012 17.5737 102.621C11.9847 97.0621 7.55376 90.4501 4.53728 83.1676C1.5208 75.8851 -0.0213087 68.0766 0.000222389 60.1941C0.000222389 59.1995 0.395311 58.2457 1.09857 57.5424C1.80183 56.8392 2.75566 56.4441 3.75022 56.4441C4.74478 56.4441 5.69861 56.8392 6.40187 57.5424C7.10513 58.2457 7.50022 59.1995 7.50022 60.1941C7.50022 89.1427 31.0516 112.694 60.0002 112.694C88.9488 112.694 112.5 89.1427 112.5 60.1941C112.5 33.9122 92.8798 11.5339 66.8613 8.13941C66.3678 8.08192 65.8907 7.92695 65.4576 7.68351C65.0246 7.44006 64.6442 7.11299 64.3386 6.72129C64.033 6.32959 63.8083 5.88108 63.6775 5.4018C63.5467 4.92251 63.5125 4.42202 63.5768 3.92939C63.641 3.43676 63.8026 2.96182 64.052 2.53214C64.3013 2.10247 64.6336 1.72663 65.0295 1.42646C65.4254 1.1263 65.8769 0.907781 66.358 0.783612C66.839 0.659443 67.3399 0.632095 67.8316 0.703157C82.2635 2.60512 95.5121 9.68806 105.11 20.6327C114.707 31.5773 119.999 45.6374 120 60.1941Z" fill="#F8F8F8"/>
</g>
<defs>
<clipPath id="clip0_113_401">
<rect width="120" height="120" fill="white"/>
</clipPath>
</defs>
</svg>
