<svg width="120" height="120" viewBox="0 0 120 120" fill="none" xmlns="http://www.w3.org/2000/svg">
<g opacity="0.05" clip-path="url(#clip0_113_413)">
<path d="M15 55.0001H40C43.9782 55.0001 47.7936 53.4197 50.6066 50.6067C53.4197 47.7936 55 43.9783 55 40.0001V15.0001C55 11.0218 53.4197 7.20651 50.6066 4.39346C47.7936 1.58041 43.9782 6.10352e-05 40 6.10352e-05H15C11.0218 6.10352e-05 7.20644 1.58041 4.3934 4.39346C1.58035 7.20651 0 11.0218 0 15.0001V40.0001C0 43.9783 1.58035 47.7936 4.3934 50.6067C7.20644 53.4197 11.0218 55.0001 15 55.0001ZM10 15.0001C10 13.674 10.5268 12.4022 11.4645 11.4645C12.4021 10.5268 13.6739 10.0001 15 10.0001H40C41.3261 10.0001 42.5979 10.5268 43.5355 11.4645C44.4732 12.4022 45 13.674 45 15.0001V40.0001C45 41.3261 44.4732 42.5979 43.5355 43.5356C42.5979 44.4733 41.3261 45.0001 40 45.0001H15C13.6739 45.0001 12.4021 44.4733 11.4645 43.5356C10.5268 42.5979 10 41.3261 10 40.0001V15.0001ZM80 55.0001H105C108.978 55.0001 112.794 53.4197 115.607 50.6067C118.42 47.7936 120 43.9783 120 40.0001V15.0001C120 11.0218 118.42 7.20651 115.607 4.39346C112.794 1.58041 108.978 6.10352e-05 105 6.10352e-05H80C76.0218 6.10352e-05 72.2064 1.58041 69.3934 4.39346C66.5804 7.20651 65 11.0218 65 15.0001V40.0001C65 43.9783 66.5804 47.7936 69.3934 50.6067C72.2064 53.4197 76.0218 55.0001 80 55.0001ZM75 15.0001C75 13.674 75.5268 12.4022 76.4645 11.4645C77.4021 10.5268 78.6739 10.0001 80 10.0001H105C106.326 10.0001 107.598 10.5268 108.536 11.4645C109.473 12.4022 110 13.674 110 15.0001V40.0001C110 41.3261 109.473 42.5979 108.536 43.5356C107.598 44.4733 106.326 45.0001 105 45.0001H80C78.6739 45.0001 77.4021 44.4733 76.4645 43.5356C75.5268 42.5979 75 41.3261 75 40.0001V15.0001ZM15 120H40C43.9782 120 47.7936 118.42 50.6066 115.607C53.4197 112.794 55 108.978 55 105V80.0001C55 76.0218 53.4197 72.2065 50.6066 69.3935C47.7936 66.5804 43.9782 65.0001 40 65.0001H15C11.0218 65.0001 7.20644 66.5804 4.3934 69.3935C1.58035 72.2065 0 76.0218 0 80.0001V105C0 108.978 1.58035 112.794 4.3934 115.607C7.20644 118.42 11.0218 120 15 120ZM10 80.0001C10 78.674 10.5268 77.4022 11.4645 76.4645C12.4021 75.5268 13.6739 75.0001 15 75.0001H40C41.3261 75.0001 42.5979 75.5268 43.5355 76.4645C44.4732 77.4022 45 78.674 45 80.0001V105C45 106.326 44.4732 107.598 43.5355 108.536C42.5979 109.473 41.3261 110 40 110H15C13.6739 110 12.4021 109.473 11.4645 108.536C10.5268 107.598 10 106.326 10 105V80.0001ZM65 105C65 108.978 66.5804 112.794 69.3934 115.607C72.2064 118.42 76.0218 120 80 120H105C108.978 120 112.794 118.42 115.607 115.607C118.42 112.794 120 108.978 120 105V80.0001C120 76.0218 118.42 72.2065 115.607 69.3935C112.794 66.5804 108.978 65.0001 105 65.0001H80C76.0218 65.0001 72.2064 66.5804 69.3934 69.3935C66.5804 72.2065 65 76.0218 65 80.0001V105ZM75 80.0001C75 78.674 75.5268 77.4022 76.4645 76.4645C77.4021 75.5268 78.6739 75.0001 80 75.0001H105C106.326 75.0001 107.598 75.5268 108.536 76.4645C109.473 77.4022 110 78.674 110 80.0001V105C110 106.326 109.473 107.598 108.536 108.536C107.598 109.473 106.326 110 105 110H80C78.6739 110 77.4021 109.473 76.4645 108.536C75.5268 107.598 75 106.326 75 105V80.0001Z" fill="#F8F8F8"/>
</g>
<defs>
<clipPath id="clip0_113_413">
<rect width="120" height="120" fill="white"/>
</clipPath>
</defs>
</svg>
