<svg width="120" height="120" viewBox="0 0 120 120" fill="none" xmlns="http://www.w3.org/2000/svg">
<g opacity="0.05" clip-path="url(#clip0_113_408)">
<path d="M110.656 101.447H95.5259C94.6936 98.5988 92.9601 96.0968 90.5855 94.3168C88.211 92.5367 85.3232 91.5745 82.3555 91.5745C79.3878 91.5745 76.5001 92.5367 74.1255 94.3168C71.7509 96.0968 70.0174 98.5988 69.1851 101.447H4.73643C3.68952 101.447 2.68549 101.863 1.94522 102.604C1.20494 103.344 0.789063 104.348 0.789062 105.395C0.789063 106.442 1.20494 107.446 1.94522 108.186C2.68549 108.926 3.68952 109.342 4.73643 109.342H69.197C70.0326 112.186 71.7667 114.683 74.1398 116.459C76.5129 118.235 79.3973 119.195 82.3614 119.195C85.3256 119.195 88.21 118.235 90.583 116.459C92.9561 114.683 94.6902 112.186 95.5259 109.342H110.644C111.691 109.342 112.695 108.926 113.436 108.186C114.176 107.446 114.592 106.442 114.592 105.395C114.592 104.348 114.176 103.344 113.436 102.604C112.695 101.863 111.691 101.447 110.644 101.447H110.656ZM82.3693 111.316C81.1982 111.316 80.0535 110.969 79.0798 110.318C78.1061 109.667 77.3471 108.743 76.899 107.661C76.4508 106.579 76.3336 105.388 76.562 104.24C76.7905 103.091 77.3544 102.036 78.1825 101.208C79.0106 100.38 80.0656 99.816 81.2142 99.5875C82.3628 99.3591 83.5533 99.4763 84.6352 99.9245C85.7171 100.373 86.6419 101.132 87.2925 102.105C87.9431 103.079 88.2904 104.224 88.2904 105.395C88.2904 106.965 87.6665 108.471 86.5561 109.582C85.4457 110.692 83.9397 111.316 82.3693 111.316ZM106.815 0.789551H13.1838C9.89747 0.792686 6.74664 2.09956 4.42286 4.42335C2.09907 6.74713 0.792198 9.89796 0.789062 13.1843V75.2369C0.792198 78.5232 2.09907 81.6741 4.42286 83.9978C6.74664 86.3216 9.89747 87.6285 13.1838 87.6317H106.815C110.102 87.6285 113.253 86.3216 115.576 83.9978C117.9 81.6741 119.207 78.5232 119.21 75.2369V13.1843C119.207 9.89796 117.9 6.74713 115.576 4.42335C113.253 2.09956 110.102 0.792686 106.815 0.789551ZM111.315 75.2369C111.314 76.4301 110.84 77.5741 109.996 78.4177C109.153 79.2614 108.009 79.7359 106.815 79.7369H13.1838C11.9906 79.7359 10.8467 79.2614 10.003 78.4177C9.15929 77.5741 8.68484 76.4301 8.6838 75.2369V13.1843C8.68484 11.9911 9.15929 10.8471 10.003 10.0035C10.8467 9.15977 11.9906 8.68533 13.1838 8.68429H106.815C108.009 8.68533 109.153 9.15977 109.996 10.0035C110.84 10.8471 111.314 11.9911 111.315 13.1843V75.2369Z" fill="#F8F8F8"/>
<path d="M81.8284 40.8632L50.2494 21.1264C49.6519 20.7529 48.9653 20.5462 48.2609 20.5277C47.5566 20.5092 46.8601 20.6796 46.2438 21.0212C45.6275 21.3628 45.1138 21.8631 44.7562 22.4702C44.3986 23.0773 44.21 23.7691 44.21 24.4737V63.9474C44.21 64.6521 44.3986 65.3438 44.7562 65.951C45.1138 66.5581 45.6275 67.0584 46.2438 67.4C46.8601 67.7416 47.5566 67.9119 48.2609 67.8935C48.9653 67.875 49.6519 67.6682 50.2494 67.2948L81.8284 47.558C82.3996 47.2039 82.871 46.71 83.1979 46.1228C83.5248 45.5356 83.6963 44.8747 83.6963 44.2027C83.6963 43.5307 83.5248 42.8698 83.1979 42.2826C82.871 41.6954 82.3996 41.2014 81.8284 40.8474V40.8632ZM52.1047 56.8422V31.579L72.2876 44.2106L52.1047 56.8422Z" fill="#F8F8F8"/>
</g>
<defs>
<clipPath id="clip0_113_408">
<rect width="120" height="120" fill="white"/>
</clipPath>
</defs>
</svg>
