<svg width="129" height="120" viewBox="0 0 129 120" fill="none" xmlns="http://www.w3.org/2000/svg">
<g id="icon-1" opacity="0.05" clip-path="url(#clip0_107_300)">
<g id="Group">
<path id="Vector" d="M123.798 85.7163C122.42 85.7163 121.098 85.1745 120.123 84.21C119.148 83.2455 118.601 81.9374 118.601 80.5734V39.4306C118.601 38.0666 119.148 36.7585 120.123 35.794C121.098 34.8296 122.42 34.2877 123.798 34.2877C125.177 34.2877 126.499 34.8296 127.474 35.794C128.448 36.7585 128.996 38.0666 128.996 39.4306V80.5734C128.996 81.9374 128.448 83.2455 127.474 84.21C126.499 85.1745 125.177 85.7163 123.798 85.7163ZM105.898 94.2877V25.7163C105.898 24.3523 105.35 23.0442 104.375 22.0798C103.401 21.1153 102.078 20.5734 100.7 20.5734C99.3214 20.5734 97.9994 21.1153 97.0246 22.0798C96.0499 23.0442 95.5023 24.3523 95.5023 25.7163V94.2877C95.5023 95.6517 96.0499 96.9598 97.0246 97.9243C97.9994 98.8888 99.3214 99.4306 100.7 99.4306C102.078 99.4306 103.401 98.8888 104.375 97.9243C105.35 96.9598 105.898 95.6517 105.898 94.2877ZM82.7922 73.7163V46.2877C82.7922 44.9238 82.2446 43.6157 81.2699 42.6512C80.2951 41.6867 78.9731 41.1449 77.5946 41.1449C76.216 41.1449 74.894 41.6867 73.9192 42.6512C72.9445 43.6157 72.3969 44.9238 72.3969 46.2877V73.7163C72.3969 75.0803 72.9445 76.3884 73.9192 77.3528C74.894 78.3173 76.216 78.8592 77.5946 78.8592C78.9731 78.8592 80.2951 78.3173 81.2699 77.3528C82.2446 76.3884 82.7922 75.0803 82.7922 73.7163ZM59.6938 101.145V18.8592C59.6938 17.4952 59.1462 16.1871 58.1714 15.2226C57.1966 14.2581 55.8746 13.7163 54.4961 13.7163C53.1176 13.7163 51.7955 14.2581 50.8208 15.2226C49.846 16.1871 49.2984 17.4952 49.2984 18.8592V101.145C49.2984 102.509 49.846 103.817 50.8208 104.781C51.7955 105.746 53.1176 106.288 54.4961 106.288C55.8746 106.288 57.1966 105.746 58.1714 104.781C59.1462 103.817 59.6938 102.509 59.6938 101.145ZM36.5953 114.859V5.14487C36.5953 3.7809 36.0477 2.47279 35.0729 1.50832C34.0982 0.543849 32.7761 0.00201416 31.3976 0.00201416C30.0191 0.00201416 28.6971 0.543849 27.7223 1.50832C26.7476 2.47279 26.2 3.7809 26.2 5.14487V114.859C26.2 116.223 26.7476 117.531 27.7223 118.496C28.6971 119.46 30.0191 120.002 31.3976 120.002C32.7761 120.002 34.0982 119.46 35.0729 118.496C36.0477 117.531 36.5953 116.223 36.5953 114.859ZM13.4899 87.4306V32.5734C13.4899 31.2095 12.9423 29.9014 11.9675 28.9369C10.9928 27.9724 9.67074 27.4306 8.29223 27.4306C6.91372 27.4306 5.59168 27.9724 4.61692 28.9369C3.64217 29.9014 3.09456 31.2095 3.09456 32.5734V87.4306C3.09456 88.7946 3.64217 90.1027 4.61692 91.0671C5.59168 92.0316 6.91372 92.5734 8.29223 92.5734C9.67074 92.5734 10.9928 92.0316 11.9675 91.0671C12.9423 90.1027 13.4899 88.7946 13.4899 87.4306ZM-9.60856 80.5734V39.4306C-9.60856 38.0666 -10.1562 36.7585 -11.1309 35.794C-12.1057 34.8296 -13.4277 34.2877 -14.8062 34.2877C-16.1847 34.2877 -17.5068 34.8296 -18.4815 35.794C-19.4563 36.7585 -20.0039 38.0666 -20.0039 39.4306V80.5734C-20.0039 81.9374 -19.4563 83.2455 -18.4815 84.21C-17.5068 85.1745 -16.1847 85.7163 -14.8062 85.7163C-13.4277 85.7163 -12.1057 85.1745 -11.1309 84.21C-10.1562 83.2455 -9.60856 81.9374 -9.60856 80.5734Z" fill="#F8F8F8"/>
</g>
</g>
<defs>
<clipPath id="clip0_107_300">
<rect width="129" height="120" fill="white"/>
</clipPath>
</defs>
</svg>
