<svg width="390" height="680" viewBox="0 0 390 680" fill="none" xmlns="http://www.w3.org/2000/svg">
<g opacity="0.3" clip-path="url(#clip0_107_247)">
<path d="M-93.4031 679.026L-48.3937 661.074L-3.99304 641.166L39.4695 619.46L81.7129 596.075L122.435 571.192L161.33 544.964L198.094 517.568L232.473 489.206L264.137 460.084L292.832 430.377L318.28 400.34L340.201 370.176L358.393 340.113L372.576 310.432L382.547 281.386L388.129 253.253L389.093 226.263L385.363 200.771L376.813 177.005L363.62 155.652L363.366 155.271L361.082 152.834L356.82 148.289L348.574 139.555L346.088 136.915L345.047 135.822L336.7 129.754L328.074 123.483L321.883 118.963L313.104 114.545L307.066 111.524L293.999 104.947L286.185 102.307L283.114 101.266L261.549 93.9787L256.221 92.8618L256.119 92.836L225.521 86.4375L224.785 86.2852L223.542 86.1586L191.015 82.7563L183.987 82.0198L162.852 41.8011L141.921 2.04025L121.243 -37.3153L100.767 -76.239L56.6965 -78.0416L9.60628 -76.1624L-40.0463 -70.577L-91.6525 -61.2331L-144.603 -48.233L-198.29 -31.7042" stroke="url(#paint0_linear_107_247)" stroke-linecap="round" stroke-linejoin="round"/>
<path d="M-110.147 641.981L-65.3159 624.187L-21.1181 604.404L22.1407 582.798L64.1819 559.489L104.7 534.632L143.342 508.429L179.903 481.058L214.028 452.671L245.438 423.498L273.906 393.741L299.1 363.577L320.793 333.311L338.756 303.122L319.296 266.483L300.013 230.176L280.933 194.222L294.228 163.932L303.337 134.2L286.185 102.309" stroke="url(#paint1_linear_107_247)" stroke-linecap="round" stroke-linejoin="round"/>
<path d="M-126.767 605.295L-82.1122 587.646L-38.0916 567.992L4.98922 546.462L46.8026 523.23L87.0924 498.423L125.531 472.246L161.838 444.875L195.735 416.463L226.943 387.238L255.156 357.405L280.121 327.19L301.586 296.798L319.296 266.481L333.022 236.47L342.562 207.093L322.848 170.455L303.336 134.197L307.066 111.524" stroke="url(#paint2_linear_107_247)" stroke-linecap="round" stroke-linejoin="round"/>
<path d="M-143.208 568.933L-98.7316 551.439L-54.9147 531.889L-12.036 510.459L29.5994 487.303L69.6613 462.547L107.897 436.396L143.975 409.025L177.644 380.613L208.598 351.338L236.557 321.452L261.295 291.137L282.531 260.618L300.012 230.174L313.535 200.036L294.227 163.93L275.097 128.18L283.114 101.267" stroke="url(#paint3_linear_107_247)" stroke-linecap="round" stroke-linejoin="round"/>
<path d="M-159.521 532.905L-115.222 515.537L-71.5821 496.114L-28.8814 474.786L12.5254 451.681L52.3843 427.001L90.3912 400.874L126.267 373.503L159.682 345.066L190.407 315.765L218.164 285.805L242.673 255.412L263.681 224.792L280.934 194.221L262.032 158.599L243.282 123.331L256.12 92.8376" stroke="url(#paint4_linear_107_247)" stroke-linecap="round" stroke-linejoin="round"/>
<path d="M-175.658 497.207L-131.536 479.967L-88.0741 460.67L-45.6012 439.418L-4.37245 416.414L35.2836 391.761L73.0626 365.684L108.71 338.313L141.922 309.851L172.419 280.525L199.922 250.489L224.203 220.02L244.982 189.297L262.032 158.6L275.099 128.182L256.222 92.8643" stroke="url(#paint5_linear_107_247)" stroke-linecap="round" stroke-linejoin="round"/>
<path d="M-191.667 461.811L-147.723 444.724L-104.439 425.529L-62.144 404.378L-21.1175 381.45L18.3099 356.847L55.8859 330.796L91.3047 303.425L124.288 274.963L154.557 245.586L181.857 215.498L205.909 184.954L226.46 154.129L243.282 123.331L224.735 88.3683L225.522 86.4391" stroke="url(#paint6_linear_107_247)" stroke-linecap="round" stroke-linejoin="round"/>
<path d="M-207.552 426.749L-163.76 409.788L-120.678 390.72L-78.5614 369.671L-37.7377 346.794L1.51254 322.241L38.8599 296.216L74.0757 268.871L106.831 240.383L136.896 210.98L163.942 180.842L187.792 150.196L208.115 119.296L224.733 88.37L223.541 86.1612" stroke="url(#paint7_linear_107_247)" stroke-linecap="round" stroke-linejoin="round"/>
<path d="M-223.281 392.011L-179.667 375.177L-136.737 356.211L-94.8234 335.238L-54.2027 312.438L-15.1554 287.962L21.989 261.962L56.9761 234.617L89.5282 206.103L119.366 176.675L146.209 146.486L169.83 115.763L189.95 84.7621L191.016 82.7555" stroke="url(#paint8_linear_107_247)" stroke-linecap="round" stroke-linejoin="round"/>
<path d="M41.7266 90.9583L20.9476 49.9024L0.396401 9.30344L-19.9269 -30.8395L-40.0464 -70.5754L-59.9381 -109.854L-79.601 -148.727L-99.0868 -187.194L-118.344 -225.254" stroke="url(#paint9_linear_107_247)" stroke-linecap="round" stroke-linejoin="round"/>
<path d="M91.9912 84.2802L71.0591 43.5281L50.3558 3.18296L29.8554 -36.7053L9.6086 -76.1624L-10.4352 -115.213L-30.2762 -153.857L-49.9133 -192.07L-69.3234 -229.876" stroke="url(#paint10_linear_107_247)" stroke-linecap="round" stroke-linejoin="round"/>
<path d="M139.587 81.3365L118.528 40.8382L97.6987 0.772717L77.0968 -38.8367L56.697 -78.04L36.5268 -116.836L16.5844 -155.201L-3.15422 -193.185L-22.7165 -230.738" stroke="url(#paint11_linear_107_247)" stroke-linecap="round" stroke-linejoin="round"/>
<path d="M224.786 86.2869L203.575 46.3728L182.618 6.89074L141.921 2.0411L97.6985 0.771868L50.3546 3.1838L0.397614 9.30264L-51.5637 19.1284L-104.972 32.5863L-159.116 49.5721" stroke="url(#paint12_linear_107_247)" stroke-linecap="round" stroke-linejoin="round"/>
<path d="M261.551 93.9795L258.252 87.8099L240.339 54.3709L219.357 15.1677L198.577 -23.6286L178.026 -61.9938L157.678 -99.9778L137.559 -137.581L117.642 -174.778L81.0299 -184.401L61.3162 -221.471L21.0006 -227.921" stroke="url(#paint13_linear_107_247)" stroke-linecap="round" stroke-linejoin="round"/>
<path d="M293.999 104.95L286.286 90.6554L272.813 65.6207L251.831 26.6963L231.077 -11.7954L210.526 -49.9059L190.203 -87.6369L170.083 -124.96L150.167 -161.904L117.64 -174.776L97.926 -211.618L61.3139 -221.47" stroke="url(#paint14_linear_107_247)" stroke-linecap="round" stroke-linejoin="round"/>
<path d="M183.988 82.0222L139.588 81.3365L91.9901 84.2827L41.7287 90.96L-10.6135 101.293L-64.4269 115.233L-119.078 132.651" stroke="url(#paint15_linear_107_247)" stroke-linecap="round" stroke-linejoin="round"/>
<path d="M321.883 118.965L309.577 96.2658L300.748 79.9391L279.816 41.2951L259.113 3.08224L238.612 -34.7744L218.315 -72.2258L190.203 -87.6377L157.676 -99.977L121.014 -109.093L100.919 -146.949L60.4518 -152.866L40.6108 -190.595L-3.15526 -193.185L-49.9161 -192.068L-99.0864 -187.193L-150.134 -178.586L-202.477 -166.246L-255.478 -150.301" stroke="url(#paint16_linear_107_247)" stroke-linecap="round" stroke-linejoin="round"/>
<path d="M345.048 135.823L328.353 105.126L323.989 97.0773L303.134 58.7129L282.481 20.7539L262.056 -16.824L238.613 -34.7752L210.527 -49.9076L178.025 -61.9938L141.338 -70.83L121.014 -109.093L80.4958 -114.756L60.452 -152.866L16.5844 -155.202L-30.2771 -153.856L-79.6005 -148.727L-130.852 -139.892L-183.397 -127.324L-236.601 -111.201" stroke="url(#paint17_linear_107_247)" stroke-linecap="round" stroke-linejoin="round"/>
<path d="M363.368 155.271L359.156 147.502L357.862 145.166L343.096 117.947L342.411 116.779L336.855 106.547L321.657 78.6682L303.136 58.7112L279.818 41.2934L251.834 26.6938L219.358 15.1668L182.619 6.88903L161.865 -32.1861L141.34 -70.8309L100.77 -76.239L80.4978 -114.756L36.5279 -116.838L-10.4351 -115.213L-59.9355 -109.856L-111.364 -100.766L-164.112 -87.9948L-217.545 -71.669" stroke="url(#paint18_linear_107_247)" stroke-linecap="round" stroke-linejoin="round"/>
<path d="M376.814 177.008L367.148 159.26L363.012 151.668L355.984 138.77L343.095 117.95L342.41 116.781L323.99 97.0789L300.75 79.94L272.815 65.6199L240.34 54.3726L203.576 46.3737L162.854 41.8037L118.53 40.8391L71.0586 43.5306L20.9494 49.9033L-31.2148 59.9838L-84.8004 73.6938L-139.198 90.8835" stroke="url(#paint19_linear_107_247)" stroke-linecap="round" stroke-linejoin="round"/>
<path d="M385.363 200.774L369.125 170.915L364.685 162.79L361.082 152.837" stroke="url(#paint20_linear_107_247)" stroke-linecap="round" stroke-linejoin="round"/>
<path d="M355.983 138.77L346.215 120.819L335.356 100.938L321.655 78.6707L316.048 68.3622L301.129 40.9655L282.481 20.7555L259.114 3.08305L231.078 -11.7954L198.576 -23.627L161.864 -32.1844L121.244 -37.3129L77.0966 -38.8368L29.8542 -36.7036L-19.9256 -30.8386L-71.7089 -21.2659L-124.889 -8.03775L-178.803 8.72003" stroke="url(#paint21_linear_107_247)" stroke-linecap="round" stroke-linejoin="round"/>
<path d="M389.093 226.266L368.618 188.535L364.685 162.789L356.82 148.292" stroke="url(#paint22_linear_107_247)" stroke-linecap="round" stroke-linejoin="round"/>
<path d="M388.129 253.254L367.831 215.702L368.618 188.535L348.32 151.16L346.088 136.916" stroke="url(#paint23_linear_107_247)" stroke-linecap="round" stroke-linejoin="round"/>
<path d="M335.357 100.937L325.488 82.7838L314.959 63.461L301.131 40.9656L295.448 30.5297L280.808 3.64157L262.058 -16.8231L241.837 -54.0456L218.317 -72.2249L198.223 -109.295L170.085 -124.961L137.559 -137.58L100.922 -146.949L81.0302 -184.4L40.6132 -190.595L21.0001 -227.92L-22.7152 -230.738L-69.3231 -229.875L-118.341 -225.253L-169.237 -216.849L-221.351 -204.738L-274.124 -188.996" stroke="url(#paint24_linear_107_247)" stroke-linecap="round" stroke-linejoin="round"/>
<path d="M382.547 281.389L362.452 244.065L342.561 207.096L347.711 178.557L348.32 151.161L336.7 129.757" stroke="url(#paint25_linear_107_247)" stroke-linecap="round" stroke-linejoin="round"/>
<path d="M314.957 63.4601L304.96 45.1286L294.736 26.3908L280.806 3.6407L275.047 -6.89668L260.661 -33.3021L241.835 -54.0473L221.817 -90.8628L198.222 -109.297L178.355 -146.011L150.167 -161.905L130.453 -198.493L97.9267 -211.62" stroke="url(#paint26_linear_107_247)" stroke-linecap="round" stroke-linejoin="round"/>
<path d="M372.576 310.432L352.71 273.286L362.453 244.062L367.832 215.701L347.712 178.555L327.82 141.738L328.074 123.483" stroke="url(#paint27_linear_107_247)" stroke-linecap="round" stroke-linejoin="round"/>
<path d="M358.394 340.114L338.756 303.122L352.71 273.287L333.022 236.472L313.536 200.036L322.848 170.456L327.82 141.739L313.105 114.547" stroke="url(#paint28_linear_107_247)" stroke-linecap="round" stroke-linejoin="round"/>
<path d="M294.734 26.3925L284.662 7.85694L274.741 -10.3473L260.66 -33.3005L254.875 -43.9644L240.743 -69.8888L221.816 -90.8611L202 -127.321L178.354 -146.009L158.666 -182.342L130.452 -198.491" stroke="url(#paint29_linear_107_247)" stroke-linecap="round" stroke-linejoin="round"/>
<path d="M340.204 370.177L320.795 333.31L301.589 296.798L282.534 260.617L263.683 224.791L244.984 189.295L226.462 154.129L208.118 119.293L189.952 84.763" stroke="url(#paint30_linear_107_247)" stroke-linecap="round" stroke-linejoin="round"/>
<path d="M318.279 400.342L299.098 363.577L280.12 327.192L261.294 291.138L242.671 255.413L224.201 220.019L205.907 184.955L187.792 150.196L169.828 115.766" stroke="url(#paint31_linear_107_247)" stroke-linecap="round" stroke-linejoin="round"/>
<path d="M292.831 430.377L273.903 393.739L255.154 357.406L236.556 321.453L218.162 285.805L199.92 250.487L181.854 215.499L163.942 180.84L146.207 146.487" stroke="url(#paint32_linear_107_247)" stroke-linecap="round" stroke-linejoin="round"/>
<path d="M264.137 460.085L245.438 423.497L226.942 387.239L208.598 351.338L190.406 315.765L172.418 280.523L154.556 245.586L136.897 210.979L119.365 176.676" stroke="url(#paint33_linear_107_247)" stroke-linecap="round" stroke-linejoin="round"/>
<path d="M232.472 489.207L214.026 452.67L195.733 416.464L177.643 380.613L159.68 345.066L141.92 309.849L124.286 274.963L106.83 240.381L89.5268 206.104" stroke="url(#paint34_linear_107_247)" stroke-linecap="round" stroke-linejoin="round"/>
<path d="M56.9752 234.618L74.0766 268.87L91.3036 303.426L108.709 338.312L126.266 373.504L143.976 409.026L161.838 444.876L179.902 481.058L198.094 517.569" stroke="url(#paint35_linear_107_247)" stroke-linecap="round" stroke-linejoin="round"/>
<path d="M21.9889 261.962L38.8608 296.214L55.8857 330.795L73.062 365.682L90.3913 400.873L107.898 436.394L125.531 472.246L143.342 508.427L161.331 544.964" stroke="url(#paint36_linear_107_247)" stroke-linecap="round" stroke-linejoin="round"/>
<path d="M-15.1559 287.964L1.51387 322.241L18.3101 356.847L35.2834 391.759L52.384 427.002L69.6626 462.548L87.0925 498.425L104.7 534.631L122.436 571.193" stroke="url(#paint37_linear_107_247)" stroke-linecap="round" stroke-linejoin="round"/>
<path d="M-54.2036 312.438L-37.7376 346.792L-21.1185 381.449L-4.37305 416.412L12.5246 451.679L29.5994 487.302L46.8015 523.23L64.1815 559.488L81.7129 596.075" stroke="url(#paint38_linear_107_247)" stroke-linecap="round" stroke-linejoin="round"/>
<path d="M-94.8226 335.241L-78.5595 369.67L-62.1441 404.379L-45.6016 439.418L-28.8819 474.787L-12.035 510.46L4.98992 546.463L22.1413 582.798L39.4697 619.46" stroke="url(#paint39_linear_107_247)" stroke-linecap="round" stroke-linejoin="round"/>
</g>
<defs>
<linearGradient id="paint0_linear_107_247" x1="389.093" y1="300.492" x2="-198.29" y2="300.492" gradientUnits="userSpaceOnUse">
<stop stop-color="#11B6F6"/>
<stop offset="1" stop-color="#2B8FDE"/>
</linearGradient>
<linearGradient id="paint1_linear_107_247" x1="338.756" y1="372.145" x2="-110.147" y2="372.145" gradientUnits="userSpaceOnUse">
<stop stop-color="#11B6F6"/>
<stop offset="1" stop-color="#2B8FDE"/>
</linearGradient>
<linearGradient id="paint2_linear_107_247" x1="342.562" y1="358.409" x2="-126.767" y2="358.409" gradientUnits="userSpaceOnUse">
<stop stop-color="#11B6F6"/>
<stop offset="1" stop-color="#2B8FDE"/>
</linearGradient>
<linearGradient id="paint3_linear_107_247" x1="313.535" y1="335.1" x2="-143.208" y2="335.1" gradientUnits="userSpaceOnUse">
<stop stop-color="#11B6F6"/>
<stop offset="1" stop-color="#2B8FDE"/>
</linearGradient>
<linearGradient id="paint4_linear_107_247" x1="280.934" y1="312.871" x2="-159.521" y2="312.871" gradientUnits="userSpaceOnUse">
<stop stop-color="#11B6F6"/>
<stop offset="1" stop-color="#2B8FDE"/>
</linearGradient>
<linearGradient id="paint5_linear_107_247" x1="275.099" y1="295.036" x2="-175.658" y2="295.036" gradientUnits="userSpaceOnUse">
<stop stop-color="#11B6F6"/>
<stop offset="1" stop-color="#2B8FDE"/>
</linearGradient>
<linearGradient id="paint6_linear_107_247" x1="243.282" y1="274.125" x2="-191.667" y2="274.125" gradientUnits="userSpaceOnUse">
<stop stop-color="#11B6F6"/>
<stop offset="1" stop-color="#2B8FDE"/>
</linearGradient>
<linearGradient id="paint7_linear_107_247" x1="224.733" y1="256.455" x2="-207.552" y2="256.455" gradientUnits="userSpaceOnUse">
<stop stop-color="#11B6F6"/>
<stop offset="1" stop-color="#2B8FDE"/>
</linearGradient>
<linearGradient id="paint8_linear_107_247" x1="191.016" y1="237.384" x2="-223.281" y2="237.384" gradientUnits="userSpaceOnUse">
<stop stop-color="#11B6F6"/>
<stop offset="1" stop-color="#2B8FDE"/>
</linearGradient>
<linearGradient id="paint9_linear_107_247" x1="41.7266" y1="-67.1479" x2="-118.344" y2="-67.1479" gradientUnits="userSpaceOnUse">
<stop stop-color="#11B6F6"/>
<stop offset="1" stop-color="#2B8FDE"/>
</linearGradient>
<linearGradient id="paint10_linear_107_247" x1="91.9912" y1="-72.7981" x2="-69.3234" y2="-72.7981" gradientUnits="userSpaceOnUse">
<stop stop-color="#11B6F6"/>
<stop offset="1" stop-color="#2B8FDE"/>
</linearGradient>
<linearGradient id="paint11_linear_107_247" x1="139.587" y1="-74.7005" x2="-22.7165" y2="-74.7005" gradientUnits="userSpaceOnUse">
<stop stop-color="#11B6F6"/>
<stop offset="1" stop-color="#2B8FDE"/>
</linearGradient>
<linearGradient id="paint12_linear_107_247" x1="224.786" y1="43.5294" x2="-159.116" y2="43.5294" gradientUnits="userSpaceOnUse">
<stop stop-color="#11B6F6"/>
<stop offset="1" stop-color="#2B8FDE"/>
</linearGradient>
<linearGradient id="paint13_linear_107_247" x1="261.551" y1="-66.9705" x2="21.0006" y2="-66.9705" gradientUnits="userSpaceOnUse">
<stop stop-color="#11B6F6"/>
<stop offset="1" stop-color="#2B8FDE"/>
</linearGradient>
<linearGradient id="paint14_linear_107_247" x1="293.999" y1="-58.2595" x2="61.3139" y2="-58.2595" gradientUnits="userSpaceOnUse">
<stop stop-color="#11B6F6"/>
<stop offset="1" stop-color="#2B8FDE"/>
</linearGradient>
<linearGradient id="paint15_linear_107_247" x1="183.988" y1="106.994" x2="-119.078" y2="106.994" gradientUnits="userSpaceOnUse">
<stop stop-color="#11B6F6"/>
<stop offset="1" stop-color="#2B8FDE"/>
</linearGradient>
<linearGradient id="paint16_linear_107_247" x1="321.883" y1="-37.1101" x2="-255.478" y2="-37.1101" gradientUnits="userSpaceOnUse">
<stop stop-color="#11B6F6"/>
<stop offset="1" stop-color="#2B8FDE"/>
</linearGradient>
<linearGradient id="paint17_linear_107_247" x1="345.048" y1="-9.68964" x2="-236.601" y2="-9.68964" gradientUnits="userSpaceOnUse">
<stop stop-color="#11B6F6"/>
<stop offset="1" stop-color="#2B8FDE"/>
</linearGradient>
<linearGradient id="paint18_linear_107_247" x1="363.368" y1="19.2166" x2="-217.545" y2="19.2166" gradientUnits="userSpaceOnUse">
<stop stop-color="#11B6F6"/>
<stop offset="1" stop-color="#2B8FDE"/>
</linearGradient>
<linearGradient id="paint19_linear_107_247" x1="376.814" y1="108.923" x2="-139.198" y2="108.923" gradientUnits="userSpaceOnUse">
<stop stop-color="#11B6F6"/>
<stop offset="1" stop-color="#2B8FDE"/>
</linearGradient>
<linearGradient id="paint20_linear_107_247" x1="385.363" y1="176.805" x2="361.082" y2="176.805" gradientUnits="userSpaceOnUse">
<stop stop-color="#11B6F6"/>
<stop offset="1" stop-color="#2B8FDE"/>
</linearGradient>
<linearGradient id="paint21_linear_107_247" x1="355.983" y1="49.9665" x2="-178.803" y2="49.9665" gradientUnits="userSpaceOnUse">
<stop stop-color="#11B6F6"/>
<stop offset="1" stop-color="#2B8FDE"/>
</linearGradient>
<linearGradient id="paint22_linear_107_247" x1="389.093" y1="187.279" x2="356.82" y2="187.279" gradientUnits="userSpaceOnUse">
<stop stop-color="#11B6F6"/>
<stop offset="1" stop-color="#2B8FDE"/>
</linearGradient>
<linearGradient id="paint23_linear_107_247" x1="388.129" y1="195.085" x2="346.088" y2="195.085" gradientUnits="userSpaceOnUse">
<stop stop-color="#11B6F6"/>
<stop offset="1" stop-color="#2B8FDE"/>
</linearGradient>
<linearGradient id="paint24_linear_107_247" x1="335.357" y1="-64.9001" x2="-274.124" y2="-64.9001" gradientUnits="userSpaceOnUse">
<stop stop-color="#11B6F6"/>
<stop offset="1" stop-color="#2B8FDE"/>
</linearGradient>
<linearGradient id="paint25_linear_107_247" x1="382.547" y1="205.573" x2="336.7" y2="205.573" gradientUnits="userSpaceOnUse">
<stop stop-color="#11B6F6"/>
<stop offset="1" stop-color="#2B8FDE"/>
</linearGradient>
<linearGradient id="paint26_linear_107_247" x1="314.957" y1="-74.0797" x2="97.9267" y2="-74.0797" gradientUnits="userSpaceOnUse">
<stop stop-color="#11B6F6"/>
<stop offset="1" stop-color="#2B8FDE"/>
</linearGradient>
<linearGradient id="paint27_linear_107_247" x1="372.576" y1="216.957" x2="327.82" y2="216.957" gradientUnits="userSpaceOnUse">
<stop stop-color="#11B6F6"/>
<stop offset="1" stop-color="#2B8FDE"/>
</linearGradient>
<linearGradient id="paint28_linear_107_247" x1="358.394" y1="227.331" x2="313.105" y2="227.331" gradientUnits="userSpaceOnUse">
<stop stop-color="#11B6F6"/>
<stop offset="1" stop-color="#2B8FDE"/>
</linearGradient>
<linearGradient id="paint29_linear_107_247" x1="294.734" y1="-86.0493" x2="130.452" y2="-86.0493" gradientUnits="userSpaceOnUse">
<stop stop-color="#11B6F6"/>
<stop offset="1" stop-color="#2B8FDE"/>
</linearGradient>
<linearGradient id="paint30_linear_107_247" x1="340.204" y1="227.47" x2="189.952" y2="227.47" gradientUnits="userSpaceOnUse">
<stop stop-color="#11B6F6"/>
<stop offset="1" stop-color="#2B8FDE"/>
</linearGradient>
<linearGradient id="paint31_linear_107_247" x1="318.279" y1="258.054" x2="169.828" y2="258.054" gradientUnits="userSpaceOnUse">
<stop stop-color="#11B6F6"/>
<stop offset="1" stop-color="#2B8FDE"/>
</linearGradient>
<linearGradient id="paint32_linear_107_247" x1="292.831" y1="288.432" x2="146.207" y2="288.432" gradientUnits="userSpaceOnUse">
<stop stop-color="#11B6F6"/>
<stop offset="1" stop-color="#2B8FDE"/>
</linearGradient>
<linearGradient id="paint33_linear_107_247" x1="264.137" y1="318.38" x2="119.365" y2="318.38" gradientUnits="userSpaceOnUse">
<stop stop-color="#11B6F6"/>
<stop offset="1" stop-color="#2B8FDE"/>
</linearGradient>
<linearGradient id="paint34_linear_107_247" x1="232.472" y1="347.656" x2="89.5268" y2="347.656" gradientUnits="userSpaceOnUse">
<stop stop-color="#11B6F6"/>
<stop offset="1" stop-color="#2B8FDE"/>
</linearGradient>
<linearGradient id="paint35_linear_107_247" x1="198.094" y1="376.094" x2="56.9752" y2="376.094" gradientUnits="userSpaceOnUse">
<stop stop-color="#11B6F6"/>
<stop offset="1" stop-color="#2B8FDE"/>
</linearGradient>
<linearGradient id="paint36_linear_107_247" x1="161.331" y1="403.463" x2="21.9889" y2="403.463" gradientUnits="userSpaceOnUse">
<stop stop-color="#11B6F6"/>
<stop offset="1" stop-color="#2B8FDE"/>
</linearGradient>
<linearGradient id="paint37_linear_107_247" x1="122.436" y1="429.578" x2="-15.1559" y2="429.578" gradientUnits="userSpaceOnUse">
<stop stop-color="#11B6F6"/>
<stop offset="1" stop-color="#2B8FDE"/>
</linearGradient>
<linearGradient id="paint38_linear_107_247" x1="81.7129" y1="454.256" x2="-54.2036" y2="454.256" gradientUnits="userSpaceOnUse">
<stop stop-color="#11B6F6"/>
<stop offset="1" stop-color="#2B8FDE"/>
</linearGradient>
<linearGradient id="paint39_linear_107_247" x1="39.4697" y1="477.35" x2="-94.8226" y2="477.35" gradientUnits="userSpaceOnUse">
<stop stop-color="#11B6F6"/>
<stop offset="1" stop-color="#2B8FDE"/>
</linearGradient>
<clipPath id="clip0_107_247">
<rect width="664.496" height="911.336" fill="white" transform="matrix(-1 0 0 1 389.925 -231.57)"/>
</clipPath>
</defs>
</svg>
