<svg width="36" height="36" viewBox="0 0 36 36" fill="none" xmlns="http://www.w3.org/2000/svg">
<rect width="36" height="36" rx="6" fill="url(#paint0_linear_107_365)"/>
<path d="M23.6357 11.3235C22.1312 9.82606 20.1297 9.00084 17.9996 9C15.8743 9 13.8697 9.82447 12.3553 11.3216C10.8382 12.8211 10.002 14.8141 10 16.9259V16.9298C10.0003 18.208 10.3364 19.4974 10.9744 20.6744L10.0219 25L14.4015 24.0048C15.5107 24.5632 16.7483 24.8577 17.9966 24.8582H17.9998C20.1248 24.8582 22.1294 24.0336 23.644 22.5364C25.1624 21.0355 25.9991 19.0452 26 16.932C26.0006 14.8338 25.1611 12.8419 23.6357 11.3235H23.6357ZM17.9996 23.6094H17.9968C16.876 23.6089 15.7654 23.3277 14.7853 22.7962L14.5783 22.6838L11.666 23.3456L12.2986 20.4735L12.1767 20.2634C11.5704 19.2189 11.25 18.0658 11.25 16.9284C11.2523 13.2472 14.2798 10.2487 17.9993 10.2487C19.7963 10.2495 21.4846 10.9454 22.7534 12.2081C24.0414 13.4903 24.7505 15.1678 24.7499 16.9317C24.7484 20.6138 21.7202 23.6094 17.9996 23.6094Z" fill="#F8F8F8"/>
<path d="M15.8228 13.4332H15.4722C15.3501 13.4332 15.1519 13.4789 14.9843 13.6611C14.8165 13.8435 14.3438 14.2843 14.3438 15.1808C14.3438 16.0773 14.9995 16.9435 15.0909 17.0652C15.1825 17.1868 16.3568 19.0852 18.2168 19.8156C19.7625 20.4225 20.0772 20.3018 20.4126 20.2714C20.7481 20.2411 21.4953 19.8307 21.6478 19.4053C21.8003 18.9799 21.8003 18.6151 21.7546 18.5389C21.7087 18.463 21.5867 18.4175 21.4038 18.3264C21.2207 18.2352 20.3239 17.787 20.1561 17.7261C19.9883 17.6654 19.8664 17.635 19.7443 17.8175C19.6223 17.9996 19.2629 18.421 19.1561 18.5426C19.0495 18.6643 18.9427 18.6796 18.7596 18.5884C18.5766 18.4969 17.9933 18.3012 17.2942 17.6806C16.7501 17.1975 16.3726 16.5815 16.2658 16.3992C16.1591 16.2169 16.2544 16.1183 16.3461 16.0273C16.4284 15.9458 16.5395 15.8342 16.631 15.7279C16.7224 15.6215 16.7484 15.5455 16.8095 15.4239C16.8705 15.3024 16.8399 15.1959 16.7942 15.1049C16.7484 15.0137 16.3973 14.1127 16.2345 13.7523H16.2346C16.0975 13.4489 15.9532 13.4386 15.8228 13.4332Z" fill="#F8F8F8"/>
<defs>
<linearGradient id="paint0_linear_107_365" x1="0" y1="18" x2="36" y2="18" gradientUnits="userSpaceOnUse">
<stop stop-color="#11B6F6"/>
<stop offset="1" stop-color="#2B8FDE"/>
</linearGradient>
</defs>
</svg>
