<svg width="40" height="40" viewBox="0 0 40 40" fill="none" xmlns="http://www.w3.org/2000/svg">
<g filter="url(#filter0_b_107_345)">
<rect x="0.000976562" y="0.000671387" width="40" height="40" rx="6" fill="white" fill-opacity="0.1"/>
</g>
<path d="M25.2304 11.0007H15.7716C15.037 11.0014 14.3327 11.3018 13.8132 11.8361C13.2938 12.3704 13.0016 13.0949 13.001 13.8505V26.1509C13.0016 26.9065 13.2938 27.6309 13.8132 28.1652C14.3327 28.6995 15.037 29 15.7716 29.0007H25.2304C25.965 29 26.6693 28.6995 27.1887 28.1652C27.7082 27.6309 28.0003 26.9065 28.001 26.1509V13.8505C28.0003 13.0949 27.7082 12.3704 27.1887 11.8361C26.6693 11.3018 25.965 11.0014 25.2304 11.0007ZM26.751 26.1509C26.7506 26.5656 26.5903 26.9632 26.3052 27.2565C26.0201 27.5497 25.6335 27.7146 25.2304 27.715H15.7716C15.3684 27.7146 14.9818 27.5497 14.6967 27.2565C14.4116 26.9632 14.2513 26.5656 14.251 26.1509V13.8505C14.2513 13.4357 14.4116 13.0381 14.6967 12.7449C14.9818 12.4516 15.3684 12.2867 15.7716 12.2864H25.2304C25.6335 12.2867 26.0201 12.4516 26.3052 12.7449C26.5903 13.0381 26.7506 13.4357 26.751 13.8505V26.1509Z" fill="#F8F8F8"/>
<path d="M17.0105 17.4838H23.9918C24.1576 17.4838 24.3165 17.4179 24.4337 17.3007C24.5509 17.1835 24.6168 17.0246 24.6168 16.8588C24.6168 16.693 24.5509 16.5341 24.4337 16.4169C24.3165 16.2996 24.1576 16.2338 23.9918 16.2338H17.0105C16.8448 16.2338 16.6858 16.2996 16.5686 16.4169C16.4514 16.5341 16.3855 16.693 16.3855 16.8588C16.3855 17.0246 16.4514 17.1835 16.5686 17.3007C16.6858 17.4179 16.8448 17.4838 17.0105 17.4838ZM17.373 21.1007H16.6543C16.4885 21.1007 16.3296 21.1665 16.2124 21.2837C16.0951 21.4009 16.0293 21.5599 16.0293 21.7257C16.0293 21.8914 16.0951 22.0504 16.2124 22.1676C16.3296 22.2848 16.4885 22.3507 16.6543 22.3507H17.373C17.5388 22.3507 17.6978 22.2848 17.815 22.1676C17.9322 22.0504 17.998 21.8914 17.998 21.7257C17.998 21.5599 17.9322 21.4009 17.815 21.2837C17.6978 21.1665 17.5388 21.1007 17.373 21.1007ZM20.8605 21.1007H20.1418C19.976 21.1007 19.8171 21.1665 19.6999 21.2837C19.5826 21.4009 19.5168 21.5599 19.5168 21.7257C19.5168 21.8914 19.5826 22.0504 19.6999 22.1676C19.8171 22.2848 19.976 22.3507 20.1418 22.3507H20.8605C21.0263 22.3507 21.1853 22.2848 21.3025 22.1676C21.4197 22.0504 21.4855 21.8914 21.4855 21.7257C21.4855 21.5599 21.4197 21.4009 21.3025 21.2837C21.1853 21.1665 21.0263 21.1007 20.8605 21.1007ZM24.3512 21.1007H23.6324C23.4667 21.1007 23.3077 21.1665 23.1905 21.2837C23.0733 21.4009 23.0074 21.5599 23.0074 21.7257C23.0074 21.8914 23.0733 22.0504 23.1905 22.1676C23.3077 22.2848 23.4667 22.3507 23.6324 22.3507H24.3512C24.5169 22.3507 24.6759 22.2848 24.7931 22.1676C24.9103 22.0504 24.9762 21.8914 24.9762 21.7257C24.9762 21.5599 24.9103 21.4009 24.7931 21.2837C24.6759 21.1665 24.5169 21.1007 24.3512 21.1007ZM17.373 24.1694H16.6543C16.4885 24.1694 16.3296 24.2353 16.2124 24.3525C16.0951 24.4697 16.0293 24.6287 16.0293 24.7944C16.0293 24.9602 16.0951 25.1192 16.2124 25.2364C16.3296 25.3536 16.4885 25.4194 16.6543 25.4194H17.373C17.5388 25.4194 17.6978 25.3536 17.815 25.2364C17.9322 25.1192 17.998 24.9602 17.998 24.7944C17.998 24.6287 17.9322 24.4697 17.815 24.3525C17.6978 24.2353 17.5388 24.1694 17.373 24.1694ZM20.8605 24.1694H20.1418C19.976 24.1694 19.8171 24.2353 19.6999 24.3525C19.5826 24.4697 19.5168 24.6287 19.5168 24.7944C19.5168 24.9602 19.5826 25.1192 19.6999 25.2364C19.8171 25.3536 19.976 25.4194 20.1418 25.4194H20.8605C21.0263 25.4194 21.1853 25.3536 21.3025 25.2364C21.4197 25.1192 21.4855 24.9602 21.4855 24.7944C21.4855 24.6287 21.4197 24.4697 21.3025 24.3525C21.1853 24.2353 21.0263 24.1694 20.8605 24.1694ZM24.3512 24.1694H23.6324C23.4667 24.1694 23.3077 24.2353 23.1905 24.3525C23.0733 24.4697 23.0074 24.6287 23.0074 24.7944C23.0074 24.9602 23.0733 25.1192 23.1905 25.2364C23.3077 25.3536 23.4667 25.4194 23.6324 25.4194H24.3512C24.5169 25.4194 24.6759 25.3536 24.7931 25.2364C24.9103 25.1192 24.9762 24.9602 24.9762 24.7944C24.9762 24.6287 24.9103 24.4697 24.7931 24.3525C24.6759 24.2353 24.5169 24.1694 24.3512 24.1694Z" fill="#F8F8F8"/>
<defs>
<filter id="filter0_b_107_345" x="-9.99902" y="-9.99933" width="60" height="60" filterUnits="userSpaceOnUse" color-interpolation-filters="sRGB">
<feFlood flood-opacity="0" result="BackgroundImageFix"/>
<feGaussianBlur in="BackgroundImageFix" stdDeviation="5"/>
<feComposite in2="SourceAlpha" operator="in" result="effect1_backgroundBlur_107_345"/>
<feBlend mode="normal" in="SourceGraphic" in2="effect1_backgroundBlur_107_345" result="shape"/>
</filter>
</defs>
</svg>
