<svg width="36" height="36" viewBox="0 0 36 36" fill="none" xmlns="http://www.w3.org/2000/svg">
<rect width="36" height="36" rx="6" fill="url(#paint0_linear_107_371)"/>
<path d="M21.8805 25C21.7555 25 21.6313 24.9638 21.5249 24.8932L17.5018 22.2237L15.3441 23.7425C15.2607 23.8011 15.164 23.8391 15.0623 23.8531C14.9606 23.867 14.8569 23.8566 14.7603 23.8227C14.6636 23.7887 14.5768 23.7323 14.5074 23.6583C14.438 23.5843 14.388 23.4948 14.3617 23.3977L13.2783 19.3812L9.4071 17.9332C9.28801 17.8887 9.18545 17.81 9.11282 17.7075C9.04019 17.6049 9.00087 17.4834 9.00001 17.3587C8.99916 17.2339 9.0368 17.1119 9.10801 17.0084C9.17922 16.9049 9.2807 16.8249 9.39916 16.7788L24.1189 11.0492C24.2252 11.0051 24.3418 10.9903 24.4561 11.0062C24.5704 11.0222 24.6781 11.0685 24.7675 11.14C24.8569 11.2115 24.9246 11.3055 24.9633 11.412C25.002 11.5184 25.0103 11.6331 24.9872 11.7438L22.5026 24.4964C22.475 24.6381 22.3978 24.7659 22.2842 24.8578C22.1706 24.9497 22.0279 25 21.8805 25ZM17.8551 20.9608L21.4386 23.3386L23.3719 13.4157L16.3894 19.9883L17.8382 20.9497C17.844 20.9532 17.8496 20.957 17.8551 20.9608ZM14.8719 20.432L15.3517 22.2106L16.3855 21.4829L15.0318 20.5846C14.9696 20.5435 14.9155 20.4918 14.8719 20.432ZM11.3759 17.3429L14.0341 18.3371C14.128 18.3722 14.2119 18.4286 14.2791 18.5018C14.3462 18.5749 14.3946 18.6627 14.4203 18.7577L14.7574 20.0075C14.7729 19.8621 14.8405 19.7268 14.9481 19.6255L21.6015 13.3628L11.3759 17.3429Z" fill="#F8F8F8"/>
<defs>
<linearGradient id="paint0_linear_107_371" x1="0" y1="18" x2="36" y2="18" gradientUnits="userSpaceOnUse">
<stop stop-color="#11B6F6"/>
<stop offset="1" stop-color="#2B8FDE"/>
</linearGradient>
</defs>
</svg>
