<svg width="200" height="40" viewBox="0 0 200 40" fill="none" xmlns="http://www.w3.org/2000/svg">
<rect width="40" height="40" rx="6" fill="url(#paint0_linear_107_376)"/>
<path d="M14.0987 20H10.1555V8.36364H14.1783C15.3336 8.36364 16.326 8.59659 17.1555 9.0625C17.9889 9.52462 18.629 10.1894 19.076 11.0568C19.523 11.9242 19.7464 12.9621 19.7464 14.1705C19.7464 15.3826 19.5211 16.4242 19.0703 17.2955C18.6233 18.1667 17.9775 18.8352 17.1328 19.3011C16.2919 19.767 15.2805 20 14.0987 20ZM12.2635 18.1761H13.9964C14.8071 18.1761 15.4832 18.0284 16.0249 17.733C16.5665 17.4337 16.9737 16.9886 17.2464 16.3977C17.5192 15.803 17.6555 15.0606 17.6555 14.1705C17.6555 13.2803 17.5192 12.5417 17.2464 11.9545C16.9737 11.3636 16.5703 10.9223 16.0362 10.6307C15.5059 10.3352 14.8468 10.1875 14.0589 10.1875H12.2635V18.1761ZM28.0732 11.5625C28.0201 11.0663 27.7966 10.6799 27.4027 10.4034C27.0125 10.1269 26.505 9.98864 25.88 9.98864C25.4406 9.98864 25.0637 10.0549 24.7493 10.1875C24.4349 10.3201 24.1944 10.5 24.0277 10.7273C23.861 10.9545 23.7758 11.214 23.772 11.5057C23.772 11.7481 23.8269 11.9583 23.9368 12.1364C24.0504 12.3144 24.2038 12.4659 24.397 12.5909C24.5902 12.7121 24.8042 12.8144 25.0391 12.8977C25.2739 12.9811 25.5107 13.0511 25.7493 13.108L26.8402 13.3807C27.2796 13.483 27.7019 13.6212 28.1072 13.7955C28.5163 13.9697 28.8819 14.1894 29.2038 14.4545C29.5296 14.7197 29.7872 15.0398 29.9766 15.4148C30.166 15.7898 30.2607 16.2292 30.2607 16.733C30.2607 17.4148 30.0864 18.0152 29.7379 18.5341C29.3894 19.0492 28.8857 19.4527 28.2266 19.7443C27.5713 20.0322 26.7777 20.1761 25.8459 20.1761C24.9406 20.1761 24.1546 20.036 23.4879 19.7557C22.825 19.4754 22.3061 19.0663 21.9311 18.5284C21.5599 17.9905 21.3591 17.3352 21.3288 16.5625H23.4027C23.433 16.9678 23.558 17.3049 23.7777 17.5739C23.9974 17.8428 24.2834 18.0436 24.6357 18.1761C24.9917 18.3087 25.3894 18.375 25.8288 18.375C26.2872 18.375 26.6887 18.3068 27.0334 18.1705C27.3819 18.0303 27.6546 17.8371 27.8516 17.5909C28.0485 17.3409 28.1489 17.0492 28.1527 16.7159C28.1489 16.4129 28.0599 16.1629 27.8857 15.9659C27.7114 15.7652 27.4671 15.5985 27.1527 15.4659C26.8421 15.3295 26.4785 15.2083 26.0618 15.1023L24.7379 14.7614C23.7796 14.5152 23.022 14.142 22.4652 13.642C21.9122 13.1383 21.6357 12.4697 21.6357 11.6364C21.6357 10.9508 21.8213 10.3504 22.1925 9.83523C22.5675 9.32008 23.0769 8.92045 23.7209 8.63636C24.3648 8.34848 25.094 8.20455 25.9084 8.20455C26.7341 8.20455 27.4576 8.34848 28.0788 8.63636C28.7038 8.92045 29.1944 9.31629 29.5504 9.82386C29.9065 10.3277 30.0902 10.9072 30.1016 11.5625H28.0732Z" fill="#F8F8F8"/>
<path d="M12.6496 25.5455V26.3977H9.67019V25.5455H12.6496ZM10.4692 24.2386H11.531V29.3984C11.531 29.6044 11.5618 29.7595 11.6233 29.8636C11.6849 29.9654 11.7642 30.0353 11.8612 30.0732C11.9607 30.1087 12.0684 30.1264 12.1844 30.1264C12.2696 30.1264 12.3442 30.1205 12.4081 30.1087C12.472 30.0968 12.5218 30.0874 12.5573 30.0803L12.749 30.9574C12.6875 30.9811 12.5999 31.0047 12.4862 31.0284C12.3726 31.0545 12.2306 31.0687 12.0601 31.071C11.7807 31.0758 11.5203 31.026 11.2789 30.9219C11.0374 30.8177 10.8421 30.6567 10.6929 30.4389C10.5438 30.2211 10.4692 29.9477 10.4692 29.6186V24.2386ZM16.1164 31.1101C15.579 31.1101 15.1162 30.9953 14.7279 30.7656C14.342 30.5336 14.0437 30.2081 13.833 29.7891C13.6247 29.3677 13.5205 28.8741 13.5205 28.3082C13.5205 27.7495 13.6247 27.2571 13.833 26.831C14.0437 26.4048 14.3373 26.0722 14.7137 25.8331C15.0925 25.594 15.5352 25.4744 16.0418 25.4744C16.3496 25.4744 16.6479 25.5253 16.9367 25.6271C17.2255 25.7289 17.4848 25.8887 17.7144 26.1065C17.944 26.3243 18.1251 26.6072 18.2577 26.9553C18.3903 27.3009 18.4566 27.7211 18.4566 28.2159V28.5923H14.1206V27.7969H17.4161C17.4161 27.5175 17.3593 27.2701 17.2456 27.0547C17.132 26.8369 16.9722 26.6652 16.7662 26.5398C16.5626 26.4143 16.3235 26.3516 16.0489 26.3516C15.7506 26.3516 15.4902 26.425 15.2677 26.5717C15.0475 26.7161 14.877 26.9055 14.7563 27.1399C14.6379 27.3719 14.5787 27.6241 14.5787 27.8963V28.5178C14.5787 28.8823 14.6427 29.1925 14.7705 29.4482C14.9007 29.7038 15.0818 29.8991 15.3138 30.0341C15.5458 30.1667 15.8169 30.233 16.127 30.233C16.3283 30.233 16.5117 30.2045 16.6775 30.1477C16.8432 30.0885 16.9864 30.0009 17.1072 29.8849C17.2279 29.7689 17.3202 29.6257 17.3841 29.4553L18.3891 29.6364C18.3086 29.9323 18.1642 30.1915 17.9559 30.4141C17.7499 30.6342 17.4907 30.8059 17.1782 30.929C16.868 31.0497 16.5141 31.1101 16.1164 31.1101ZM21.9323 31.1101C21.4043 31.1101 20.9498 30.9905 20.5686 30.7514C20.1898 30.5099 19.8986 30.1773 19.695 29.7536C19.4914 29.3298 19.3896 28.8445 19.3896 28.2976C19.3896 27.7436 19.4938 27.2547 19.7021 26.831C19.9105 26.4048 20.204 26.0722 20.5828 25.8331C20.9616 25.594 21.4079 25.4744 21.9216 25.4744C22.3359 25.4744 22.7052 25.5514 23.0296 25.7053C23.3539 25.8568 23.6155 26.0698 23.8144 26.3445C24.0156 26.6191 24.1352 26.9399 24.173 27.3068H23.1396C23.0828 27.0511 22.9526 26.831 22.749 26.6463C22.5478 26.4616 22.2779 26.3693 21.9394 26.3693C21.6434 26.3693 21.3842 26.4474 21.1617 26.6037C20.9415 26.7576 20.7699 26.9777 20.6468 27.2642C20.5236 27.5483 20.4621 27.8845 20.4621 28.2727C20.4621 28.6705 20.5225 29.0137 20.6432 29.3026C20.7639 29.5914 20.9344 29.8151 21.1546 29.9737C21.3771 30.1323 21.6387 30.2116 21.9394 30.2116C22.1406 30.2116 22.3229 30.175 22.4862 30.1016C22.652 30.0258 22.7905 29.9181 22.9017 29.7784C23.0154 29.6387 23.0947 29.4706 23.1396 29.2741H24.173C24.1352 29.6269 24.0203 29.9418 23.8286 30.2188C23.6368 30.4957 23.3799 30.7135 23.058 30.8722C22.7384 31.0308 22.3631 31.1101 21.9323 31.1101ZM26.3703 27.7614V31H25.3085V23.7273H26.3561V26.4332H26.4236C26.5514 26.1397 26.7467 25.9065 27.0095 25.7337C27.2723 25.5608 27.6156 25.4744 28.0393 25.4744C28.4134 25.4744 28.7401 25.5514 29.0194 25.7053C29.3012 25.8591 29.519 26.0888 29.6729 26.3942C29.8291 26.6972 29.9072 27.076 29.9072 27.5305V31H28.8454V27.6584C28.8454 27.2583 28.7425 26.9482 28.5365 26.728C28.3305 26.5054 28.0441 26.3942 27.6771 26.3942C27.4262 26.3942 27.2013 26.4474 27.0024 26.554C26.8059 26.6605 26.6508 26.8168 26.5372 27.0227C26.4259 27.2263 26.3703 27.4725 26.3703 27.7614Z" fill="#F8F8F8"/>
<path d="M56.0568 7.27273H57.0966V14.142H57.1818L61.9545 7.27273H62.9773V16H61.9205V9.14773H61.8352L57.0795 16H56.0568V7.27273ZM69.3363 12.267V13.2045H65.7227V12.267H69.3363ZM65.9613 9.45455V16H64.9556V9.45455H65.9613ZM70.1033 9.45455V16H69.0977V9.45455H70.1033ZM71.0494 10.392V9.45455H76.3675V10.392H74.2198V16H73.2141V10.392H71.0494ZM80.239 16.1364C79.6083 16.1364 79.0643 15.9972 78.6069 15.7188C78.1523 15.4375 77.8015 15.0455 77.5543 14.5426C77.31 14.0369 77.1879 13.4489 77.1879 12.7784C77.1879 12.108 77.31 11.517 77.5543 11.0057C77.8015 10.4915 78.1452 10.0909 78.5856 9.80398C79.0288 9.5142 79.5458 9.36932 80.1367 9.36932C80.4776 9.36932 80.8143 9.42614 81.1467 9.53977C81.479 9.65341 81.7816 9.83807 82.0543 10.0938C82.3271 10.3466 82.5444 10.6818 82.7063 11.0994C82.8683 11.517 82.9492 12.0312 82.9492 12.642V13.0682H77.9038V12.1989H81.9265C81.9265 11.8295 81.8526 11.5 81.7049 11.2102C81.56 10.9205 81.3526 10.6918 81.0827 10.5241C80.8157 10.3565 80.5004 10.2727 80.1367 10.2727C79.7362 10.2727 79.3896 10.3722 79.0969 10.571C78.8072 10.767 78.5842 11.0227 78.4279 11.3381C78.2717 11.6534 78.1935 11.9915 78.1935 12.3523V12.9318C78.1935 13.4261 78.2788 13.8452 78.4492 14.1889C78.6225 14.5298 78.8626 14.7898 79.1694 14.9688C79.4762 15.1449 79.8327 15.233 80.239 15.233C80.5032 15.233 80.7418 15.196 80.9549 15.1222C81.1708 15.0455 81.3569 14.9318 81.5131 14.7812C81.6694 14.6278 81.7901 14.4375 81.8754 14.2102L82.8469 14.483C82.7447 14.8125 82.5728 15.1023 82.3313 15.3523C82.0898 15.5994 81.7915 15.7926 81.4364 15.9318C81.0813 16.0682 80.6822 16.1364 80.239 16.1364ZM88.5188 9.45455V10.392H85.4847V16H84.479V9.45455H88.5188ZM89.9869 18.4545V9.45455H90.9585V10.4943H91.0778C91.1516 10.3807 91.2539 10.2358 91.3846 10.0597C91.5181 9.88068 91.7085 9.72159 91.9556 9.58239C92.2056 9.44034 92.5437 9.36932 92.9698 9.36932C93.521 9.36932 94.0067 9.5071 94.4272 9.78267C94.8477 10.0582 95.1758 10.4489 95.4116 10.9545C95.6474 11.4602 95.7653 12.0568 95.7653 12.7443C95.7653 13.4375 95.6474 14.0384 95.4116 14.5469C95.1758 15.0526 94.8491 15.4446 94.4315 15.723C94.0138 15.9986 93.5323 16.1364 92.9869 16.1364C92.5664 16.1364 92.2298 16.0668 91.9769 15.9276C91.7241 15.7855 91.5295 15.625 91.3931 15.446C91.2567 15.2642 91.1516 15.1136 91.0778 14.9943H90.9925V18.4545H89.9869ZM90.9755 12.7273C90.9755 13.2216 91.0479 13.6577 91.1928 14.0355C91.3377 14.4105 91.5494 14.7045 91.8278 14.9176C92.1062 15.1278 92.4471 15.233 92.8505 15.233C93.271 15.233 93.6218 15.1222 93.9031 14.9006C94.1871 14.6761 94.4002 14.375 94.5423 13.9972C94.6871 13.6165 94.7596 13.1932 94.7596 12.7273C94.7596 12.267 94.6886 11.8523 94.5465 11.483C94.4073 11.1108 94.1957 10.8168 93.9116 10.6009C93.6303 10.3821 93.2766 10.2727 92.8505 10.2727C92.4414 10.2727 92.0977 10.3764 91.8192 10.5838C91.5408 10.7884 91.3306 11.0753 91.1886 11.4446C91.0465 11.8111 90.9755 12.2386 90.9755 12.7273ZM99.2255 16.1534C98.8107 16.1534 98.4343 16.0753 98.0962 15.919C97.7582 15.7599 97.4897 15.5312 97.2908 15.233C97.092 14.9318 96.9925 14.5682 96.9925 14.142C96.9925 13.767 97.0664 13.4631 97.2141 13.2301C97.3619 12.9943 97.5593 12.8097 97.8065 12.6761C98.0536 12.5426 98.3263 12.4432 98.6246 12.3778C98.9258 12.3097 99.2283 12.2557 99.5323 12.2159C99.93 12.1648 100.252 12.1264 100.5 12.1009C100.75 12.0724 100.931 12.0256 101.045 11.9602C101.162 11.8949 101.22 11.7812 101.22 11.6193V11.5852C101.22 11.1648 101.105 10.8381 100.875 10.6051C100.647 10.3722 100.302 10.2557 99.8391 10.2557C99.359 10.2557 98.9826 10.3608 98.7099 10.571C98.4371 10.7812 98.2454 11.0057 98.1346 11.2443L97.18 10.9034C97.3505 10.5057 97.5778 10.196 97.8619 9.97443C98.1488 9.75 98.4613 9.59375 98.7994 9.50568C99.1403 9.41477 99.4755 9.36932 99.805 9.36932C100.015 9.36932 100.257 9.39489 100.529 9.44602C100.805 9.49432 101.071 9.59517 101.326 9.74858C101.585 9.90199 101.799 10.1335 101.97 10.4432C102.14 10.7528 102.225 11.1676 102.225 11.6875V16H101.22V15.1136H101.169C101.1 15.2557 100.987 15.4077 100.828 15.5696C100.669 15.7315 100.457 15.8693 100.193 15.983C99.9286 16.0966 99.6062 16.1534 99.2255 16.1534ZM99.3789 15.25C99.7766 15.25 100.112 15.1719 100.385 15.0156C100.66 14.8594 100.868 14.6577 101.007 14.4105C101.149 14.1634 101.22 13.9034 101.22 13.6307V12.7102C101.177 12.7614 101.083 12.8082 100.939 12.8509C100.797 12.8906 100.632 12.9261 100.444 12.9574C100.26 12.9858 100.079 13.0114 99.9031 13.0341C99.7298 13.054 99.5891 13.071 99.4812 13.0852C99.2198 13.1193 98.9755 13.1747 98.7482 13.2514C98.5238 13.3253 98.342 13.4375 98.2028 13.5881C98.0664 13.7358 97.9982 13.9375 97.9982 14.1932C97.9982 14.5426 98.1275 14.8068 98.386 14.9858C98.6474 15.1619 98.9783 15.25 99.3789 15.25ZM103.17 10.392V9.45455H108.489V10.392H106.341V16H105.335V10.392H103.17ZM112.275 16.1364C111.684 16.1364 111.165 15.9957 110.719 15.7145C110.276 15.4332 109.93 15.0398 109.68 14.5341C109.433 14.0284 109.309 13.4375 109.309 12.7614C109.309 12.0795 109.433 11.4844 109.68 10.9759C109.93 10.4673 110.276 10.0724 110.719 9.79119C111.165 9.50994 111.684 9.36932 112.275 9.36932C112.866 9.36932 113.383 9.50994 113.826 9.79119C114.272 10.0724 114.619 10.4673 114.866 10.9759C115.116 11.4844 115.241 12.0795 115.241 12.7614C115.241 13.4375 115.116 14.0284 114.866 14.5341C114.619 15.0398 114.272 15.4332 113.826 15.7145C113.383 15.9957 112.866 16.1364 112.275 16.1364ZM112.275 15.233C112.724 15.233 113.093 15.1179 113.383 14.8878C113.673 14.6577 113.887 14.3551 114.026 13.9801C114.165 13.6051 114.235 13.1989 114.235 12.7614C114.235 12.3239 114.165 11.9162 114.026 11.5384C113.887 11.1605 113.673 10.8551 113.383 10.6222C113.093 10.3892 112.724 10.2727 112.275 10.2727C111.826 10.2727 111.457 10.3892 111.167 10.6222C110.877 10.8551 110.663 11.1605 110.523 11.5384C110.384 11.9162 110.315 12.3239 110.315 12.7614C110.315 13.1989 110.384 13.6051 110.523 13.9801C110.663 14.3551 110.877 14.6577 111.167 14.8878C111.457 15.1179 111.826 15.233 112.275 15.233ZM116.776 18.4545V9.45455H117.748V10.4943H117.867C117.941 10.3807 118.043 10.2358 118.174 10.0597C118.307 9.88068 118.498 9.72159 118.745 9.58239C118.995 9.44034 119.333 9.36932 119.759 9.36932C120.31 9.36932 120.796 9.5071 121.216 9.78267C121.637 10.0582 121.965 10.4489 122.201 10.9545C122.436 11.4602 122.554 12.0568 122.554 12.7443C122.554 13.4375 122.436 14.0384 122.201 14.5469C121.965 15.0526 121.638 15.4446 121.221 15.723C120.803 15.9986 120.321 16.1364 119.776 16.1364C119.355 16.1364 119.019 16.0668 118.766 15.9276C118.513 15.7855 118.319 15.625 118.182 15.446C118.046 15.2642 117.941 15.1136 117.867 14.9943H117.782V18.4545H116.776ZM117.765 12.7273C117.765 13.2216 117.837 13.6577 117.982 14.0355C118.127 14.4105 118.338 14.7045 118.617 14.9176C118.895 15.1278 119.236 15.233 119.64 15.233C120.06 15.233 120.411 15.1222 120.692 14.9006C120.976 14.6761 121.189 14.375 121.331 13.9972C121.476 13.6165 121.549 13.1932 121.549 12.7273C121.549 12.267 121.478 11.8523 121.336 11.483C121.196 11.1108 120.985 10.8168 120.701 10.6009C120.419 10.3821 120.066 10.2727 119.64 10.2727C119.23 10.2727 118.887 10.3764 118.608 10.5838C118.33 10.7884 118.12 11.0753 117.978 11.4446C117.836 11.8111 117.765 12.2386 117.765 12.7273ZM132.611 9.45455V15.0625H133.532V18.1136H132.526V16H127.463V9.45455H128.469V15.0625H131.605V9.45455H132.611ZM136.086 14.517L139.24 9.45455H140.399V16H139.393V10.9375L136.257 16H135.081V9.45455H136.086V14.517ZM144.9 18.233V7.27273H145.906V18.233H144.9ZM144.9 16.1364C144.457 16.1364 144.053 16.0568 143.69 15.8977C143.326 15.7358 143.013 15.5071 142.752 15.2116C142.491 14.9134 142.289 14.5568 142.147 14.142C142.005 13.7273 141.934 13.267 141.934 12.7614C141.934 12.25 142.005 11.7869 142.147 11.3722C142.289 10.9545 142.491 10.5966 142.752 10.2983C143.013 10 143.326 9.77131 143.69 9.61222C144.053 9.45028 144.457 9.36932 144.9 9.36932H145.207V16.1364H144.9ZM144.9 15.233H145.07V10.2727H144.9C144.565 10.2727 144.273 10.3409 144.026 10.4773C143.779 10.6108 143.575 10.794 143.413 11.027C143.254 11.2571 143.134 11.5213 143.055 11.8196C142.978 12.1179 142.94 12.4318 142.94 12.7614C142.94 13.1989 143.009 13.6051 143.148 13.9801C143.288 14.3551 143.502 14.6577 143.792 14.8878C144.082 15.1179 144.451 15.233 144.9 15.233ZM145.906 16.1364H145.599V9.36932H145.906C146.349 9.36932 146.752 9.45028 147.116 9.61222C147.479 9.77131 147.792 10 148.053 10.2983C148.315 10.5966 148.516 10.9545 148.658 11.3722C148.8 11.7869 148.871 12.25 148.871 12.7614C148.871 13.267 148.8 13.7273 148.658 14.142C148.516 14.5568 148.315 14.9134 148.053 15.2116C147.792 15.5071 147.479 15.7358 147.116 15.8977C146.752 16.0568 146.349 16.1364 145.906 16.1364ZM145.906 15.233C146.244 15.233 146.535 15.1676 146.779 15.0369C147.026 14.9034 147.229 14.7216 147.388 14.4915C147.55 14.2585 147.67 13.9943 147.746 13.6989C147.826 13.4006 147.866 13.0881 147.866 12.7614C147.866 12.3239 147.796 11.9162 147.657 11.5384C147.518 11.1605 147.303 10.8551 147.013 10.6222C146.724 10.3892 146.354 10.2727 145.906 10.2727H145.735V15.233H145.906ZM150.409 18.4545V9.45455H151.38V10.4943H151.5C151.574 10.3807 151.676 10.2358 151.806 10.0597C151.94 9.88068 152.13 9.72159 152.377 9.58239C152.627 9.44034 152.966 9.36932 153.392 9.36932C153.943 9.36932 154.429 9.5071 154.849 9.78267C155.27 10.0582 155.598 10.4489 155.833 10.9545C156.069 11.4602 156.187 12.0568 156.187 12.7443C156.187 13.4375 156.069 14.0384 155.833 14.5469C155.598 15.0526 155.271 15.4446 154.853 15.723C154.436 15.9986 153.954 16.1364 153.409 16.1364C152.988 16.1364 152.652 16.0668 152.399 15.9276C152.146 15.7855 151.951 15.625 151.815 15.446C151.679 15.2642 151.574 15.1136 151.5 14.9943H151.414V18.4545H150.409ZM151.397 12.7273C151.397 13.2216 151.47 13.6577 151.615 14.0355C151.76 14.4105 151.971 14.7045 152.25 14.9176C152.528 15.1278 152.869 15.233 153.272 15.233C153.693 15.233 154.044 15.1222 154.325 14.9006C154.609 14.6761 154.822 14.375 154.964 13.9972C155.109 13.6165 155.181 13.1932 155.181 12.7273C155.181 12.267 155.11 11.8523 154.968 11.483C154.829 11.1108 154.618 10.8168 154.333 10.6009C154.052 10.3821 153.699 10.2727 153.272 10.2727C152.863 10.2727 152.52 10.3764 152.241 10.5838C151.963 10.7884 151.752 11.0753 151.61 11.4446C151.468 11.8111 151.397 12.2386 151.397 12.7273ZM160.38 16.1364C159.789 16.1364 159.271 15.9957 158.825 15.7145C158.382 15.4332 158.035 15.0398 157.785 14.5341C157.538 14.0284 157.414 13.4375 157.414 12.7614C157.414 12.0795 157.538 11.4844 157.785 10.9759C158.035 10.4673 158.382 10.0724 158.825 9.79119C159.271 9.50994 159.789 9.36932 160.38 9.36932C160.971 9.36932 161.488 9.50994 161.931 9.79119C162.377 10.0724 162.724 10.4673 162.971 10.9759C163.221 11.4844 163.346 12.0795 163.346 12.7614C163.346 13.4375 163.221 14.0284 162.971 14.5341C162.724 15.0398 162.377 15.4332 161.931 15.7145C161.488 15.9957 160.971 16.1364 160.38 16.1364ZM160.38 15.233C160.829 15.233 161.199 15.1179 161.488 14.8878C161.778 14.6577 161.993 14.3551 162.132 13.9801C162.271 13.6051 162.341 13.1989 162.341 12.7614C162.341 12.3239 162.271 11.9162 162.132 11.5384C161.993 11.1605 161.778 10.8551 161.488 10.6222C161.199 10.3892 160.829 10.2727 160.38 10.2727C159.931 10.2727 159.562 10.3892 159.272 10.6222C158.983 10.8551 158.768 11.1605 158.629 11.5384C158.49 11.9162 158.42 12.3239 158.42 12.7614C158.42 13.1989 158.49 13.6051 158.629 13.9801C158.768 14.3551 158.983 14.6577 159.272 14.8878C159.562 15.1179 159.931 15.233 160.38 15.233ZM164.881 16V9.45455H167.558C168.262 9.45455 168.822 9.61364 169.237 9.93182C169.651 10.25 169.859 10.6705 169.859 11.1932C169.859 11.5909 169.741 11.8991 169.505 12.1179C169.269 12.3338 168.967 12.4801 168.597 12.5568C168.839 12.5909 169.073 12.6761 169.3 12.8125C169.531 12.9489 169.721 13.1364 169.871 13.375C170.022 13.6108 170.097 13.9006 170.097 14.2443C170.097 14.5795 170.012 14.8793 169.842 15.1435C169.671 15.4077 169.427 15.6165 169.109 15.7699C168.79 15.9233 168.41 16 167.967 16H164.881ZM165.836 15.0795H167.967C168.313 15.0795 168.585 14.9972 168.781 14.8324C168.977 14.6676 169.075 14.4432 169.075 14.1591C169.075 13.821 168.977 13.5554 168.781 13.3622C168.585 13.1662 168.313 13.0682 167.967 13.0682H165.836V15.0795ZM165.836 12.1989H167.558C167.827 12.1989 168.059 12.1619 168.252 12.0881C168.445 12.0114 168.593 11.9034 168.695 11.7642C168.8 11.6222 168.853 11.4545 168.853 11.2614C168.853 10.9858 168.738 10.7699 168.508 10.6136C168.278 10.4545 167.961 10.375 167.558 10.375H165.836V12.1989ZM172.489 11.8239H174.364C175.131 11.8239 175.718 12.0185 176.124 12.4077C176.53 12.7969 176.733 13.2898 176.733 13.8864C176.733 14.2784 176.642 14.6349 176.461 14.956C176.279 15.2741 176.012 15.5284 175.659 15.7188C175.307 15.9062 174.875 16 174.364 16H171.62V9.45455H172.625V15.0625H174.364C174.762 15.0625 175.088 14.9574 175.344 14.7472C175.6 14.5369 175.728 14.267 175.728 13.9375C175.728 13.5909 175.6 13.3082 175.344 13.0895C175.088 12.8707 174.762 12.7614 174.364 12.7614H172.489V11.8239ZM177.773 16V9.45455H178.779V16H177.773ZM181.37 9.45455L182.938 12.1307L184.506 9.45455H185.665L183.551 12.7273L185.665 16H184.506L182.938 13.4602L181.37 16H180.211L182.29 12.7273L180.211 9.45455H181.37ZM55.9205 34.4545V25.4545H56.892V26.4943H57.0114C57.0852 26.3807 57.1875 26.2358 57.3182 26.0597C57.4517 25.8807 57.642 25.7216 57.8892 25.5824C58.1392 25.4403 58.4773 25.3693 58.9034 25.3693C59.4545 25.3693 59.9403 25.5071 60.3608 25.7827C60.7813 26.0582 61.1094 26.4489 61.3452 26.9545C61.581 27.4602 61.6989 28.0568 61.6989 28.7443C61.6989 29.4375 61.581 30.0384 61.3452 30.5469C61.1094 31.0526 60.7827 31.4446 60.3651 31.723C59.9474 31.9986 59.4659 32.1364 58.9205 32.1364C58.5 32.1364 58.1634 32.0668 57.9105 31.9276C57.6577 31.7855 57.4631 31.625 57.3267 31.446C57.1903 31.2642 57.0852 31.1136 57.0114 30.9943H56.9261V34.4545H55.9205ZM56.9091 28.7273C56.9091 29.2216 56.9815 29.6577 57.1264 30.0355C57.2713 30.4105 57.483 30.7045 57.7614 30.9176C58.0398 31.1278 58.3807 31.233 58.7841 31.233C59.2045 31.233 59.5554 31.1222 59.8366 30.9006C60.1207 30.6761 60.3338 30.375 60.4759 29.9972C60.6207 29.6165 60.6932 29.1932 60.6932 28.7273C60.6932 28.267 60.6222 27.8523 60.4801 27.483C60.3409 27.1108 60.1293 26.8168 59.8452 26.6009C59.5639 26.3821 59.2102 26.2727 58.7841 26.2727C58.375 26.2727 58.0313 26.3764 57.7528 26.5838C57.4744 26.7884 57.2642 27.0753 57.1222 27.4446C56.9801 27.8111 56.9091 28.2386 56.9091 28.7273ZM65.9773 32.1364C65.3466 32.1364 64.8026 31.9972 64.3452 31.7188C63.8906 31.4375 63.5398 31.0455 63.2926 30.5426C63.0483 30.0369 62.9261 29.4489 62.9261 28.7784C62.9261 28.108 63.0483 27.517 63.2926 27.0057C63.5398 26.4915 63.8835 26.0909 64.3239 25.804C64.767 25.5142 65.2841 25.3693 65.875 25.3693C66.2159 25.3693 66.5526 25.4261 66.8849 25.5398C67.2173 25.6534 67.5199 25.8381 67.7926 26.0938C68.0653 26.3466 68.2827 26.6818 68.4446 27.0994C68.6065 27.517 68.6875 28.0312 68.6875 28.642V29.0682H63.642V28.1989H67.6648C67.6648 27.8295 67.5909 27.5 67.4432 27.2102C67.2983 26.9205 67.0909 26.6918 66.821 26.5241C66.554 26.3565 66.2386 26.2727 65.875 26.2727C65.4744 26.2727 65.1278 26.3722 64.8352 26.571C64.5455 26.767 64.3224 27.0227 64.1662 27.3381C64.0099 27.6534 63.9318 27.9915 63.9318 28.3523V28.9318C63.9318 29.4261 64.017 29.8452 64.1875 30.1889C64.3608 30.5298 64.6009 30.7898 64.9077 30.9688C65.2145 31.1449 65.571 31.233 65.9773 31.233C66.2415 31.233 66.4801 31.196 66.6932 31.1222C66.9091 31.0455 67.0952 30.9318 67.2514 30.7812C67.4077 30.6278 67.5284 30.4375 67.6136 30.2102L68.5852 30.483C68.483 30.8125 68.3111 31.1023 68.0696 31.3523C67.8281 31.5994 67.5298 31.7926 67.1747 31.9318C66.8196 32.0682 66.4205 32.1364 65.9773 32.1364ZM70.2173 25.4545H71.223V31.0625H73.6946V25.4545H74.7003V31.0625H77.1719V25.4545H78.1776V32H70.2173V25.4545ZM82.7585 32.1364C82.1278 32.1364 81.5838 31.9972 81.1264 31.7188C80.6719 31.4375 80.321 31.0455 80.0739 30.5426C79.8295 30.0369 79.7074 29.4489 79.7074 28.7784C79.7074 28.108 79.8295 27.517 80.0739 27.0057C80.321 26.4915 80.6648 26.0909 81.1051 25.804C81.5483 25.5142 82.0653 25.3693 82.6562 25.3693C82.9972 25.3693 83.3338 25.4261 83.6662 25.5398C83.9986 25.6534 84.3011 25.8381 84.5739 26.0938C84.8466 26.3466 85.0639 26.6818 85.2259 27.0994C85.3878 27.517 85.4688 28.0312 85.4688 28.642V29.0682H80.4233V28.1989H84.446C84.446 27.8295 84.3722 27.5 84.2244 27.2102C84.0795 26.9205 83.8722 26.6918 83.6023 26.5241C83.3352 26.3565 83.0199 26.2727 82.6562 26.2727C82.2557 26.2727 81.9091 26.3722 81.6165 26.571C81.3267 26.767 81.1037 27.0227 80.9474 27.3381C80.7912 27.6534 80.7131 27.9915 80.7131 28.3523V28.9318C80.7131 29.4261 80.7983 29.8452 80.9688 30.1889C81.142 30.5298 81.3821 30.7898 81.6889 30.9688C81.9957 31.1449 82.3523 31.233 82.7585 31.233C83.0227 31.233 83.2614 31.196 83.4744 31.1222C83.6903 31.0455 83.8764 30.9318 84.0327 30.7812C84.1889 30.6278 84.3097 30.4375 84.3949 30.2102L85.3665 30.483C85.2642 30.8125 85.0923 31.1023 84.8509 31.3523C84.6094 31.5994 84.3111 31.7926 83.956 31.9318C83.6009 32.0682 83.2017 32.1364 82.7585 32.1364ZM91.3793 28.267V29.2045H87.7656V28.267H91.3793ZM88.0043 25.4545V32H86.9986V25.4545H88.0043ZM92.1463 25.4545V32H91.1406V25.4545H92.1463ZM94.9886 30.517L98.142 25.4545H99.3011V32H98.2955V26.9375L95.1591 32H93.983V25.4545H94.9886V30.517ZM102.149 30.517L105.302 25.4545H106.461V32H105.456V26.9375L102.319 32H101.143V25.4545H102.149V30.517ZM104.637 23.2727H105.575C105.575 23.733 105.416 24.1094 105.098 24.402C104.779 24.6946 104.348 24.8409 103.802 24.8409C103.265 24.8409 102.838 24.6946 102.52 24.402C102.204 24.1094 102.047 23.733 102.047 23.2727H102.984C102.984 23.4943 103.045 23.6889 103.167 23.8565C103.292 24.0241 103.504 24.108 103.802 24.108C104.1 24.108 104.314 24.0241 104.441 23.8565C104.572 23.6889 104.637 23.4943 104.637 23.2727ZM110.979 33.875V31.0625H111.525C111.658 30.9233 111.773 30.7727 111.87 30.6108C111.967 30.4489 112.05 30.2571 112.121 30.0355C112.195 29.8111 112.258 29.5384 112.309 29.2173C112.36 28.8935 112.406 28.5028 112.445 28.0455L112.667 25.4545H116.826V31.0625H117.832V33.875H116.826V32H111.985V33.875H110.979ZM112.667 31.0625H115.82V26.392H113.604L113.434 28.0455C113.363 28.7301 113.275 29.3281 113.17 29.8395C113.065 30.3509 112.897 30.7585 112.667 31.0625ZM118.587 32V31.0625H118.826C119.022 31.0625 119.185 31.0241 119.316 30.9474C119.446 30.8679 119.551 30.7301 119.631 30.5341C119.713 30.3352 119.776 30.0597 119.819 29.7074C119.864 29.3523 119.897 28.9006 119.917 28.3523L120.036 25.4545H124.4V32H123.394V26.392H120.99L120.888 28.7273C120.865 29.2642 120.817 29.7372 120.743 30.1463C120.672 30.5526 120.563 30.8935 120.415 31.169C120.27 31.4446 120.077 31.652 119.836 31.7912C119.594 31.9304 119.292 32 118.928 32H118.587ZM130.182 32V26.375H128.444C128.051 26.375 127.743 26.4659 127.519 26.6477C127.294 26.8295 127.182 27.0795 127.182 27.3977C127.182 27.7102 127.283 27.956 127.485 28.1349C127.689 28.3139 127.969 28.4034 128.324 28.4034H130.438V29.3409H128.324C127.881 29.3409 127.499 29.2628 127.178 29.1065C126.857 28.9503 126.61 28.7273 126.436 28.4375C126.263 28.1449 126.176 27.7983 126.176 27.3977C126.176 26.9943 126.267 26.6477 126.449 26.358C126.631 26.0682 126.891 25.8452 127.229 25.6889C127.57 25.5327 127.975 25.4545 128.444 25.4545H131.137V32H130.182ZM125.819 32L127.676 28.7443H128.767L126.909 32H125.819ZM141.216 23L141.727 23.6136C141.528 23.8068 141.298 23.9418 141.037 24.0185C140.776 24.0952 140.48 24.142 140.151 24.1591C139.821 24.1761 139.455 24.1932 139.051 24.2102C138.597 24.2273 138.22 24.3381 137.922 24.5426C137.624 24.7472 137.393 25.0426 137.232 25.429C137.07 25.8153 136.966 26.2898 136.92 26.8523H137.006C137.227 26.4432 137.534 26.142 137.926 25.9489C138.318 25.7557 138.739 25.6591 139.188 25.6591C139.699 25.6591 140.159 25.7784 140.568 26.017C140.977 26.2557 141.301 26.6094 141.54 27.0781C141.778 27.5469 141.898 28.125 141.898 28.8125C141.898 29.4972 141.776 30.0881 141.531 30.5852C141.29 31.0824 140.95 31.4659 140.513 31.7358C140.078 32.0028 139.568 32.1364 138.983 32.1364C138.398 32.1364 137.885 31.9986 137.445 31.723C137.004 31.4446 136.662 31.0327 136.418 30.4872C136.173 29.9389 136.051 29.2614 136.051 28.4545V27.7557C136.051 26.2983 136.298 25.1932 136.793 24.4403C137.29 23.6875 138.037 23.2983 139.034 23.2727C139.386 23.2614 139.7 23.2585 139.976 23.2642C140.251 23.2699 140.491 23.2571 140.696 23.2259C140.901 23.1946 141.074 23.1193 141.216 23ZM138.983 31.233C139.378 31.233 139.717 31.1335 140.001 30.9347C140.288 30.7358 140.509 30.456 140.662 30.0952C140.815 29.7315 140.892 29.304 140.892 28.8125C140.892 28.3352 140.814 27.929 140.658 27.5938C140.504 27.2585 140.284 27.0028 139.997 26.8267C139.71 26.6506 139.366 26.5625 138.966 26.5625C138.673 26.5625 138.411 26.6122 138.178 26.7116C137.945 26.8111 137.746 26.9574 137.581 27.1506C137.416 27.3437 137.288 27.5795 137.197 27.858C137.109 28.1364 137.062 28.4545 137.057 28.8125C137.057 29.5455 137.229 30.1321 137.572 30.5724C137.916 31.0128 138.386 31.233 138.983 31.233ZM144.442 30.517L147.595 25.4545H148.754V32H147.749V26.9375L144.612 32H143.436V25.4545H144.442V30.517ZM150.187 30.3295H151.261C151.284 30.625 151.417 30.8494 151.662 31.0028C151.909 31.1562 152.23 31.233 152.625 31.233C153.028 31.233 153.373 31.1506 153.66 30.9858C153.947 30.8182 154.091 30.5483 154.091 30.1761C154.091 29.9574 154.037 29.767 153.929 29.6051C153.821 29.4403 153.669 29.3125 153.473 29.2216C153.277 29.1307 153.045 29.0852 152.778 29.0852H151.653V28.1818H152.778C153.179 28.1818 153.474 28.0909 153.664 27.9091C153.858 27.7273 153.954 27.5 153.954 27.2273C153.954 26.9347 153.85 26.7003 153.643 26.5241C153.436 26.3452 153.142 26.2557 152.761 26.2557C152.377 26.2557 152.058 26.3423 151.802 26.5156C151.547 26.6861 151.412 26.9062 151.397 27.1761H150.341C150.352 26.8239 150.46 26.5128 150.664 26.2429C150.869 25.9702 151.147 25.7571 151.5 25.6037C151.852 25.4474 152.255 25.3693 152.71 25.3693C153.17 25.3693 153.569 25.4503 153.907 25.6122C154.248 25.7713 154.511 25.9886 154.696 26.2642C154.883 26.5369 154.977 26.8466 154.977 27.1932C154.977 27.5625 154.873 27.8608 154.666 28.0881C154.458 28.3153 154.199 28.4773 153.886 28.5739V28.642C154.133 28.6591 154.348 28.7386 154.529 28.8807C154.714 29.0199 154.858 29.2031 154.96 29.4304C155.062 29.6548 155.113 29.9034 155.113 30.1761C155.113 30.5739 155.007 30.9205 154.794 31.2159C154.581 31.5085 154.288 31.7358 153.916 31.8977C153.544 32.0568 153.119 32.1364 152.642 32.1364C152.179 32.1364 151.764 32.0611 151.397 31.9105C151.031 31.7571 150.74 31.5455 150.524 31.2756C150.311 31.0028 150.199 30.6875 150.187 30.3295ZM160.907 28.267V29.2045H157.293V28.267H160.907ZM157.532 25.4545V32H156.526V25.4545H157.532ZM161.674 25.4545V32H160.668V25.4545H161.674ZM166.255 32.1364C165.624 32.1364 165.08 31.9972 164.623 31.7188C164.168 31.4375 163.817 31.0455 163.57 30.5426C163.326 30.0369 163.203 29.4489 163.203 28.7784C163.203 28.108 163.326 27.517 163.57 27.0057C163.817 26.4915 164.161 26.0909 164.601 25.804C165.044 25.5142 165.561 25.3693 166.152 25.3693C166.493 25.3693 166.83 25.4261 167.162 25.5398C167.495 25.6534 167.797 25.8381 168.07 26.0938C168.343 26.3466 168.56 26.6818 168.722 27.0994C168.884 27.517 168.965 28.0312 168.965 28.642V29.0682H163.919V28.1989H167.942C167.942 27.8295 167.868 27.5 167.721 27.2102C167.576 26.9205 167.368 26.6918 167.098 26.5241C166.831 26.3565 166.516 26.2727 166.152 26.2727C165.752 26.2727 165.405 26.3722 165.113 26.571C164.823 26.767 164.6 27.0227 164.444 27.3381C164.287 27.6534 164.209 27.9915 164.209 28.3523V28.9318C164.209 29.4261 164.294 29.8452 164.465 30.1889C164.638 30.5298 164.878 30.7898 165.185 30.9688C165.492 31.1449 165.848 31.233 166.255 31.233C166.519 31.233 166.757 31.196 166.971 31.1222C167.186 31.0455 167.373 30.9318 167.529 30.7812C167.685 30.6278 167.806 30.4375 167.891 30.2102L168.863 30.483C168.76 30.8125 168.588 31.1023 168.347 31.3523C168.105 31.5994 167.807 31.7926 167.452 31.9318C167.097 32.0682 166.698 32.1364 166.255 32.1364ZM173.154 32.1364C172.54 32.1364 172.012 31.9915 171.569 31.7017C171.125 31.4119 170.784 31.0128 170.546 30.5043C170.307 29.9957 170.188 29.4148 170.188 28.7614C170.188 28.0966 170.31 27.5099 170.554 27.0014C170.801 26.4901 171.145 26.0909 171.586 25.804C172.029 25.5142 172.546 25.3693 173.137 25.3693C173.597 25.3693 174.012 25.4545 174.381 25.625C174.75 25.7955 175.053 26.0341 175.289 26.3409C175.525 26.6477 175.671 27.0057 175.728 27.4148H174.722C174.645 27.1165 174.475 26.8523 174.211 26.6222C173.949 26.3892 173.597 26.2727 173.154 26.2727C172.762 26.2727 172.418 26.375 172.123 26.5795C171.83 26.7812 171.601 27.0668 171.436 27.4361C171.275 27.8026 171.194 28.233 171.194 28.7273C171.194 29.233 171.273 29.6733 171.432 30.0483C171.594 30.4233 171.821 30.7145 172.114 30.9219C172.409 31.1293 172.756 31.233 173.154 31.233C173.415 31.233 173.652 31.1875 173.865 31.0966C174.078 31.0057 174.259 30.875 174.407 30.7045C174.554 30.5341 174.659 30.3295 174.722 30.0909H175.728C175.671 30.4773 175.53 30.8253 175.306 31.1349C175.084 31.4418 174.79 31.6861 174.424 31.8679C174.06 32.0469 173.637 32.1364 173.154 32.1364ZM179.124 32.1534C178.709 32.1534 178.333 32.0753 177.995 31.919C177.657 31.7599 177.388 31.5312 177.189 31.233C176.99 30.9318 176.891 30.5682 176.891 30.142C176.891 29.767 176.965 29.4631 177.113 29.2301C177.26 28.9943 177.458 28.8097 177.705 28.6761C177.952 28.5426 178.225 28.4432 178.523 28.3778C178.824 28.3097 179.127 28.2557 179.431 28.2159C179.828 28.1648 180.151 28.1264 180.398 28.1009C180.648 28.0724 180.83 28.0256 180.944 27.9602C181.06 27.8949 181.118 27.7812 181.118 27.6193V27.5852C181.118 27.1648 181.003 26.8381 180.773 26.6051C180.546 26.3722 180.201 26.2557 179.738 26.2557C179.257 26.2557 178.881 26.3608 178.608 26.571C178.336 26.7812 178.144 27.0057 178.033 27.2443L177.078 26.9034C177.249 26.5057 177.476 26.196 177.76 25.9744C178.047 25.75 178.36 25.5937 178.698 25.5057C179.039 25.4148 179.374 25.3693 179.703 25.3693C179.914 25.3693 180.155 25.3949 180.428 25.446C180.703 25.4943 180.969 25.5952 181.225 25.7486C181.483 25.902 181.698 26.1335 181.868 26.4432C182.039 26.7528 182.124 27.1676 182.124 27.6875V32H181.118V31.1136H181.067C180.999 31.2557 180.885 31.4077 180.726 31.5696C180.567 31.7315 180.355 31.8693 180.091 31.983C179.827 32.0966 179.505 32.1534 179.124 32.1534ZM179.277 31.25C179.675 31.25 180.01 31.1719 180.283 31.0156C180.559 30.8594 180.766 30.6577 180.905 30.4105C181.047 30.1634 181.118 29.9034 181.118 29.6307V28.7102C181.076 28.7614 180.982 28.8082 180.837 28.8509C180.695 28.8906 180.53 28.9261 180.343 28.9574C180.158 28.9858 179.978 29.0114 179.801 29.0341C179.628 29.054 179.488 29.071 179.38 29.0852C179.118 29.1193 178.874 29.1747 178.647 29.2514C178.422 29.3253 178.24 29.4375 178.101 29.5881C177.965 29.7358 177.897 29.9375 177.897 30.1932C177.897 30.5426 178.026 30.8068 178.284 30.9858C178.546 31.1619 178.877 31.25 179.277 31.25Z" fill="#242424"/>
<defs>
<linearGradient id="paint0_linear_107_376" x1="0" y1="20" x2="40" y2="20" gradientUnits="userSpaceOnUse">
<stop stop-color="#11B6F6"/>
<stop offset="1" stop-color="#2B8FDE"/>
</linearGradient>
</defs>
</svg>
